<?xml version="1.0" encoding="UTF-8" standalone="no"?>
<!-- Created with Inkscape (http://www.inkscape.org/) -->

<svg
   xmlns:dc="http://purl.org/dc/elements/1.1/"
   xmlns:cc="http://creativecommons.org/ns#"
   xmlns:rdf="http://www.w3.org/1999/02/22-rdf-syntax-ns#"
   xmlns:svg="http://www.w3.org/2000/svg"
   xmlns="http://www.w3.org/2000/svg"
   xmlns:sodipodi="http://sodipodi.sourceforge.net/DTD/sodipodi-0.dtd"
   xmlns:inkscape="http://www.inkscape.org/namespaces/inkscape"
   width="400"
   height="400"
   viewBox="0 0 400 400.00001"
   id="svg3461"
   version="1.1"
   inkscape:version="0.91 r13725"
   sodipodi:docname="hills.svg">
  <defs
     id="defs3463" />
  <sodipodi:namedview
     id="base"
     pagecolor="#ffffff"
     bordercolor="#666666"
     borderopacity="1.0"
     inkscape:pageopacity="0.0"
     inkscape:pageshadow="2"
     inkscape:zoom="1.32"
     inkscape:cx="195"
     inkscape:cy="209.69697"
     inkscape:document-units="px"
     inkscape:current-layer="g3534"
     showgrid="false"
     units="px"
     inkscape:window-width="845"
     inkscape:window-height="841"
     inkscape:window-x="20"
     inkscape:window-y="21"
     inkscape:window-maximized="0" />
  <metadata
     id="metadata3466">
    <rdf:RDF>
      <cc:Work
         rdf:about="">
        <dc:format>image/svg+xml</dc:format>
        <dc:type
           rdf:resource="http://purl.org/dc/dcmitype/StillImage" />
        <dc:title></dc:title>
      </cc:Work>
    </rdf:RDF>
  </metadata>
  <g
     inkscape:label="Ebene 1"
     inkscape:groupmode="layer"
     id="layer1"
     transform="translate(0,-652.36216)">
    <g
       id="g3534"
       transform="translate(-25.714287,8.5714271)">
      <path
         style="fill:#b4afad"
         d="m 232.359,1007.4028 c -24.04204,-6.1873 -48.21584,-11.28575 -72.52842,-15.32451 -21.70229,-6.28142 -46.48488,-9.62879 -62.650566,-31.33617 -7.94396,-21.5527 12.532916,-32.29595 25.301156,-36.90956 19.79263,-8.93717 42.00319,-6.62178 60.8169,-19.26838 -21.17916,-1.66603 -43.17115,-3.75242 -61.67094,-18.53755 -17.85914,-10.96645 -40.497807,-15.67683 -52.015462,-38.47695 -7.908276,-15.26405 0.212386,-33.5973 11.194613,-41.81734 10.240121,-11.98011 26.232419,-11.08772 34.894419,-25.33136 6.25551,-4.7228 3.63478,-9.46333 -1.02396,-14.20793 -6.41776,-10.1276 -18.939966,-19.8499 -13.72985,-34.82057 13.14065,-23.10032 36.53609,-26.21646 56.12785,-34.36521 15.45144,-8.50523 30.27541,-18.95231 46.52468,-24.85753 12.36493,-11.19261 27.83969,-11.09823 42.08367,-7.40222 18.39478,4.03459 38.11471,10.07424 52.39111,26.27799 5.14171,20.38572 19.81017,29.93564 33.35284,39.58658 15.84981,7.11625 13.62065,35.6428 -3.19951,38.13502 -15.15869,8.74774 -31.87813,10.2786 -47.68661,15.88852 6.21616,15.44284 14.1689,30.93317 25.34103,42.23735 7.34791,14.89812 19.62016,30.73341 20.17138,48.2621 -12.9322,15.27852 14.73054,19.0378 14.2295,37.49322 9.27946,22.24623 34.44902,22.41535 42.63054,45.58681 6.16633,23.67075 -15.9661,28.9829 -28.81683,33.60579 -18.33614,6.21836 -37.1374,9.901 -55.61979,15.3248 -21.89606,2.3845 -44.2522,3.7096 -66.11775,0.2571 z"
         id="path3548"
         inkscape:connector-curvature="0" />
      <path
         style="fill:#f4d7d7"
         d="m 239.26899,1007.0896 c -27.03166,-6.4674 -54.02087,-13.31444 -81.27294,-18.06508 -11.13646,-1.30727 -33.94291,-18.34762 -18.68471,-32.20046 14.74491,-20.52595 32.38273,-36.98717 48.82372,-55.00563 -20.94388,-4.4513 -44.37099,0.91504 -62.59597,-16.61112 -9.24212,-12.80226 -35.162529,-15.94949 -27.711056,-38.9318 7.278616,-23.56749 8.342676,-53.86761 26.598426,-68.77871 8.07532,-4.88008 5.2479,-9.81681 -0.83644,-14.86812 -12.26316,-16.94371 13.25568,-31.75614 20.27789,-44.22404 17.07747,-19.57791 36.95302,-35.18171 58.97132,-43.54356 13.47292,-10.43287 28.62716,-16.38926 44.00015,-8.27674 17.56925,6.30344 36.99637,11.0057 50.72469,27.52109 3.46697,18.07714 17.00719,27.33087 29.08728,35.49156 15.15059,5.64369 20.97715,34.04669 1.87099,38.03342 -16.33983,8.81256 -34.20668,10.65041 -51.06415,16.89907 6.97854,14.78751 14.33775,30.53345 25.16096,42.22025 9.78829,13.66356 18.28272,31.05106 22.28985,48.17812 -5.4528,8.06196 -9.05237,13.76487 1.35686,18.29431 12.67979,9.01032 12.61957,33.01346 27.81742,39.4233 11.31005,8.61639 28.59423,16.29931 29.76055,35.77587 -4.54406,17.68938 -22.53243,17.94262 -34.20387,23.96521 -16.5637,5.5712 -33.73034,7.28382 -50.29722,12.90176 -19.89397,2.7954 -40.09121,2.4415 -60.07375,1.8013 z"
         id="path3546"
         inkscape:connector-curvature="0" />
      <path
         style="fill:#ffb380"
         d="m 238.57799,1005.332 c -27.13714,-6.4823 -54.22984,-13.50203 -81.62371,-17.84994 -9.98414,-2.11672 -17.59894,-10.9262 -24.6657,-19.52457 15.24708,-26.19458 36.25107,-45.29863 55.8952,-65.50941 -6.69417,-6.96391 -23.95047,-2.98548 -34.74172,-5.83974 -20.02076,-1.15841 -34.21529,-21.15605 -51.3569,-31.68545 -13.147411,-13.4779 3.64862,-35.53123 3.87157,-52.82674 3.71064,-16.7764 12.0615,-30.46774 23.39751,-39.81761 5.13075,-5.69752 -9.41433,-11.1575 -9.825,-18.24949 3.39537,-14.49958 16.27395,-24.65977 24.52876,-35.95824 16.18082,-18.53473 35.04019,-33.32114 55.78678,-41.60579 13.68887,-8.71492 28.55214,-19.21757 44.11855,-10.78931 18.71876,6.33259 39.86525,11.02684 53.89528,29.51165 4.23074,21.32407 21.92522,28.20513 34.48635,39.52277 7.6904,2.60674 10.61522,21.98662 0.95289,9.25388 -11.74378,-14.44214 -30.4259,-18.95291 -38.15535,-38.85418 -5.97291,-19.91954 -25.04642,-23.38737 -38.99439,-29.53219 -6.76152,-2.53693 -29.09443,-10.72943 -13.67705,1.39675 16.45118,15.31398 31.73465,33.71263 43.27369,55.23783 1.60001,15.37113 15.41221,46.86607 -4.67033,48.82355 -12.98852,3.13874 8.9294,17.69336 7.76578,29.15746 10.84758,12.20182 22.65189,24.61156 27.30944,42.94922 9.08283,9.68227 9.14126,23.25504 1.06059,31.98523 15.77085,7.3176 18.69841,28.04801 29.66536,41.30361 12.04885,12.35022 30.92675,17.13287 36.84082,37.25999 -3.51318,19.87661 -22.89733,20.10401 -35.04828,26.78328 -17.92164,4.18043 -35.60811,10.18274 -53.59812,13.85784 -18.77927,1.6441 -37.68515,1.8193 -56.49202,0.9996 z"
         id="path3544"
         inkscape:connector-curvature="0" />
      <path
         style="fill:#ffb380"
         d="m 239.26899,1005.2876 c -27.42501,-6.19123 -54.72607,-13.47835 -82.36211,-17.89614 -9.99414,-2.00499 -17.56442,-10.86407 -24.6183,-19.43397 15.33172,-26.255 36.34649,-45.52971 56.1785,-65.6465 -5.71869,-7.86398 -24.2292,-2.80465 -34.86078,-5.87319 -20.10497,-0.88823 -34.3574,-20.95519 -51.52114,-31.51491 -13.147411,-13.4779 3.64862,-35.53123 3.87157,-52.82674 3.44876,-18.97096 14.69736,-31.22396 25.51641,-43.24238 -9.93014,-8.15753 -16.89877,-20.36266 -3.87519,-30.37169 20.0187,-27.28537 44.01961,-50.99622 72.24683,-62.01706 13.68887,-8.71492 28.55214,-19.21757 44.11855,-10.78931 18.71876,6.33259 39.86525,11.02684 53.89528,29.51165 4.23074,21.32407 21.92522,28.20513 34.48635,39.52277 8.01038,2.81331 10.33605,22.63584 1.0882,8.40236 -12.77296,-15.16632 -34.43558,-20.1893 -39.8333,-43.92689 -9.83207,-16.33674 -27.31804,-19.29299 -41.7185,-25.75838 -5.7105,-2.87517 -31.6102,-10.95925 -16.46909,1.179 18.44572,14.21073 34.17009,34.25901 47.39181,55.9209 4.2823,14.17042 8.47488,34.07789 5.42554,47.23938 -14.82005,-0.8074 -12.08165,11.34493 -3.63469,20.42452 3.73706,18.3381 19.64044,24.83052 26.32536,41.09566 0.11111,11.48008 17.40726,24.81171 10.31338,32.72344 -14.38552,-11.59574 -14.82315,-36.80699 -29.38084,-48.37353 -11.65712,-10.51596 -13.65111,-32.67295 -28.72069,-37.60179 -14.32158,-9.12666 -31.46333,-12.41152 -42.6014,-28.33287 -3.12296,-6.29646 -22.83365,-17.41495 -9.93264,-3.91216 25.33213,27.41092 47.41799,63.72245 52.92691,106.64472 11.34305,11.95221 30.27341,10.23105 44.17403,18.87659 13.84699,8.14672 28.18055,18.87969 32.74972,38.70711 11.44267,19.97872 35.92934,21.48246 43.47781,45.94404 -10.56651,-2.15077 -20.36522,-20.53159 -32.53223,-25.1122 -10.11399,-8.02257 -20.47104,-18.09365 -23.24041,-33.84851 -9.33552,-12.8221 -24.19765,-16.25933 -36.70033,-22.27143 -7.27355,-1.89742 -27.36866,-12.7169 -27.19095,-6.18039 20.94927,15.73323 37.89143,38.78141 53.7097,62.0682 6.3306,16.52317 10.29812,40.66113 8.057,56.79161 -20.75191,8.55869 -42.46486,11.05719 -64.15596,10.35089 -7.53287,-0.025 -15.08457,0.18 -22.6044,-0.4728 z"
         id="path3542"
         inkscape:connector-curvature="0" />
      <path
         style="fill:#e9afaf"
         d="m 239.26899,1004.6077 c -26.89999,-5.7453 -53.56263,-13.32456 -80.66962,-17.43829 -10.55421,-1.47446 -19.45928,-9.31885 -26.11586,-19.52805 15.29266,-26.1188 36.24108,-45.28212 55.98357,-65.32554 -6.24053,-8.18846 -25.68621,-2.5547 -36.85571,-6.59282 -19.98821,-2.76409 -34.87822,-21.61506 -52.032736,-33.02475 -7.4573,-16.37213 5.948826,-35.66718 7.125926,-53.33269 4.09913,-19.93082 17.26211,-31.71787 28.28845,-45.10015 14.57647,-15.31181 30.93163,-30.40993 49.81149,-34.67374 15.66111,2.09533 31.73063,7.84628 42.89687,22.9736 16.78192,19.58527 43.9156,18.84425 56.58163,45.01971 3.83223,18.59057 19.7551,25.30567 26.63729,41.7017 0.77632,11.1717 14.76081,23.08713 11.39312,31.35966 -13.31967,-8.49595 -14.14859,-30.23764 -24.75368,-41.88584 -12.07863,-10.04458 -16.52819,-28.4949 -27.20219,-39.59624 -16.80715,-12.37578 -37.924,-15.23303 -51.49938,-34.51187 -4.60483,-8.36752 -26.91963,-16.14793 -12.25009,-1.97601 27.11787,27.8282 49.47842,66.08799 55.55822,110.77576 9.34345,7.14064 22.36962,6.36113 32.87362,11.87431 14.51086,7.61749 34.1466,12.8602 41.37226,32.62242 7.51357,29.38413 39.25277,28.45258 47.9666,56.63197 -10.74268,-5.45474 -19.11003,-20.49632 -30.93993,-25.74311 -15.59274,-7.36755 -20.19273,-27.85999 -30.41839,-41.18296 -19.2051,-14.30374 -41.31277,-20.38572 -62.86439,-25.83473 -5.91957,5.67346 18.2398,15.88832 22.42709,24.8898 12.72102,14.90967 27.01855,29.01955 35.89061,48.22356 2.36449,15.93931 8.52414,35.73984 5.36619,50.41219 -27.2415,10.65601 -56.33173,12.96511 -84.57096,9.26211 z M 119.03516,752.88387 c 10.01329,-19.66921 24.77708,-35.05447 39.19672,-49.33057 14.05722,-14.36656 30.94467,-22.00243 47.40777,-30.31988 12.13797,-10.37904 26.41824,-13.34305 40.26291,-6.94027 17.43556,6.34647 37.04881,10.48392 50.71528,26.91718 4.9331,20.69377 20.61384,29.84773 34.0363,40.09634 7.83912,2.61034 13.26556,22.70042 2.50225,9.23984 -12.77622,-15.20923 -34.16461,-20.40017 -39.62055,-44.18749 -8.0245,-13.34361 -22.36836,-18.19753 -34.57202,-22.93658 -17.09369,-8.26901 -35.30398,-10.86116 -50.66867,4.32009 -13.96462,6.34223 -28.51615,11.20124 -40.05338,24.16419 -16.61702,14.49318 -29.82577,34.15295 -45.23548,50.44787 -1.31986,1.98551 -4.57064,2.2003 -3.97113,-1.47072 z"
         id="path3540"
         inkscape:connector-curvature="0" />
      <path
         style="fill:#903904"
         d="m 133.53099,969.15894 c 4.7399,-15.59858 17.06585,-25.99667 26.24872,-37.62078 12.03587,-12.90764 24.78805,-24.85564 36.80994,-37.61822 14.68404,-10.94923 31.78868,-14.57791 46.29312,-26.10998 14.5892,-7.62993 30.02576,2.49428 44.53212,5.89558 16.06009,5.88036 33.14062,12.07872 45.91682,26.47098 4.51543,18.15896 15.71927,31.2643 29.33495,38.31549 6.20579,3.55577 24.21768,19.97256 18.62932,24.08295 -11.56217,-15.28213 -27.41678,-22.26493 -39.98358,-35.71455 -10.16779,-12.30785 -12.38415,-32.72407 -28.51644,-36.83476 -17.23969,-9.62646 -35.71132,-14.52833 -53.81482,-20.65101 -13.85823,8.87605 -27.17963,20.11853 -42.59875,23.72124 -24.36611,13.42129 -44.8713,36.22585 -63.85092,59.53464 -5.11923,5.37099 -11.14017,23.11874 -19.00048,16.52842 z M 317.52452,866.0909 c -9.55835,-14.93381 -13.43686,-35.34257 -26.53483,-46.67508 -10.67127,-12.99046 -15.16373,-34.12739 -31.62379,-38.26385 -13.35901,-6.91398 -28.44187,-10.79119 -38.16462,-25.69013 -15.56648,-19.30728 -41.18587,-16.99226 -58.50619,-2.86761 -14.97005,10.38806 -26.56192,26.74087 -40.62896,38.79841 -9.84342,16.13548 -8.77835,38.77389 -16.39021,56.58072 -2.70133,13.92678 -14.326156,10.03542 -7.458536,-3.36102 7.019346,-23.21998 8.431016,-52.58867 26.221406,-67.39357 17.77413,-19.06493 36.86724,-39.61662 60.07839,-45.82275 16.2706,1.52435 32.33817,9.06853 44.08452,24.01699 16.76581,18.30576 42.69792,18.64108 55.9888,42.58752 3.61517,18.47844 19.62476,24.9709 26.32979,41.28615 0.18893,10.12532 16.12094,25.81103 11.61923,30.29175 l -2.39089,-1.2766 -2.62411,-2.21093 0,0 z M 119.03516,751.99631 c 12.76082,-21.99658 29.56508,-40.32998 47.33555,-55.5108 15.8613,-14.2892 35.23148,-18.98537 52.00383,-31.0461 13.56661,-7.24566 28.30151,2.17212 41.8088,5.61487 13.44336,6.01403 29.76337,9.75861 38.36201,25.74349 5.29337,26.29867 31.28675,27.78221 41.55001,48.57435 -8.76986,-3.58937 -19.96939,-17.36872 -30.22509,-23.6119 -14.91022,-9.23864 -15.68714,-35.86963 -33.69207,-39.87151 -14.96381,-6.98998 -30.35061,-13.04894 -46.09448,-16.24341 -14.28714,6.43743 -27.48076,16.65348 -42.2849,21.4447 -20.86213,13.51023 -39.56535,32.68415 -55.80824,54.13767 -3.03895,2.60516 -9.45381,18.80703 -12.95542,10.76864 z"
         id="path3538"
         inkscape:connector-curvature="0" />
      <path
         style="fill:#6f3512"
         d="m 133.49958,969.09367 c 5.1895,-16.36005 18.23626,-27.19322 28.00631,-39.37237 18.96693,-20.48158 39.73988,-39.60301 63.90022,-48.27066 11.62802,-4.96939 22.31057,-17.60668 35.28384,-14.32947 -14.75926,6.4225 -27.42029,19.16518 -42.94203,22.92869 -27.62215,13.70681 -50.21588,39.73303 -70.85015,66.28496 -3.05456,4.96046 -7.84502,14.22918 -13.39819,12.75885 z m 242.56297,-13.24836 c -12.6478,-16.5294 -33.6148,-21.22089 -42.68792,-42.2786 -4.59891,-23.9855 -27.4154,-26.68508 -42.44988,-34.92766 -4.47905,-1.30476 -27.0011,-8.64779 -10.56475,-5.86428 17.72031,5.81593 36.20047,11.95594 51.4364,25.3716 6.09005,13.22344 10.99206,29.02999 23.3324,35.12372 9.88148,7.54589 25.63493,15.65517 27.92489,30.26587 -2.71162,-1.94896 -4.80322,-4.93045 -6.99114,-7.69065 z M 316.5046,862.68655 c -8.14381,-13.07344 -11.05965,-30.59146 -22.22835,-40.81344 -11.19055,-11.05083 -14.2896,-31.30899 -28.22044,-38.15587 -6.31541,-3.3355 -22.00471,-12.78798 -6.91559,-6.31365 13.20437,4.81165 26.2497,14.98294 29.8515,32.91381 10.91069,12.0528 22.42881,24.70939 27.17964,42.85762 3.60285,5.74155 14.5848,24.74814 2.03923,11.70648 l -1.70599,-2.19495 0,0 z M 95.541194,855.704 c 4.779576,-17.04853 8.070146,-34.73259 12.879976,-51.7264 4.36603,-19.25055 18.68918,-27.99249 29.71125,-40.0296 13.78264,-13.38252 29.1002,-25.80786 46.05815,-30.84822 14.63042,1.70759 29.7495,6.31871 40.37559,20.27355 4.66597,7.58479 23.6935,16.91515 21.4665,19.50577 -18.82148,-4.28032 -28.68788,-31.47793 -48.47843,-32.83547 -18.63978,-4.68739 -35.58452,8.99149 -50.10789,22.23993 -10.26915,14.19294 -27.54029,21.27105 -32.88643,40.16852 -4.25469,18.36675 -6.33651,39.00513 -16.230556,54.05986 -0.68625,1.44179 -2.88528,1.04473 -2.78816,-0.80794 z M 119.03516,751.99631 c 12.76082,-21.99658 29.56508,-40.32998 47.33555,-55.5108 16.42347,-14.43957 36.19426,-19.77384 53.6115,-31.75489 14.44395,-5.95051 29.32511,3.59245 43.40702,7.37663 12.77124,6.13409 29.382,10.45097 36.01567,27.37643 6.33511,23.56724 29.65071,25.78833 40.4019,44.46688 -7.28402,-2.05021 -22.30039,-18.10157 -32.39361,-25.20268 -12.04465,-12.15736 -15.13033,-34.99401 -32.82154,-38.3822 -15.53279,-6.70189 -31.55056,-14.738 -48.11737,-14.35795 -13.61829,6.64368 -26.68779,15.30558 -40.75689,20.59534 -25.58976,16.20026 -45.65766,42.79749 -65.991,67.79812 l -0.48817,-0.70644 -0.20306,-1.69844 0,0 z"
         id="path3536"
         inkscape:connector-curvature="0" />
    </g>
  </g>
</svg>
