<?xml version="1.0" encoding="UTF-8" standalone="no"?>
<!-- Created with Inkscape (http://www.inkscape.org/) -->
<svg id="svg3524" xmlns:rdf="http://www.w3.org/1999/02/22-rdf-syntax-ns#" xmlns="http://www.w3.org/2000/svg" height="450" viewBox="0 0 450 450" width="450" version="1.1" xmlns:cc="http://creativecommons.org/ns#" xmlns:dc="http://purl.org/dc/elements/1.1/">
 <metadata id="metadata3530">
  <rdf:RDF>
   <cc:Work rdf:about="">
    <dc:format>image/svg+xml</dc:format>
    <dc:type rdf:resource="http://purl.org/dc/dcmitype/StillImage"/>
    <dc:title/>
   </cc:Work>
  </rdf:RDF>
 </metadata>
 <path id="path3548" fill="#97deeb" d="m3.368 458.55c6.9676-0.17979 18.369-0.17979 25.337 0 6.9676 0.17979 1.2668 0.32689-12.668 0.32689s-19.636-0.1471-12.668-0.32689zm44.727-0.26292c1.422-0.45761 2.0037-0.87864 1.2927-0.93561-0.71098-0.0569-1.2927-0.77353-1.2927-1.5924 0-0.81882-0.8144-1.745-1.8098-2.0582-3.4826-1.0957-25.705-2.6707-38.005-2.6936-6.8254-0.0127-13.509-0.31872-14.852-0.68006-2.2668-0.60974-2.401-1.0383-1.8665-5.9612 0.31673-2.9173 1.0519-7.5212 1.6338-10.231 0.73146-3.4064 0.71266-7.8959-0.060911-14.549-1.7828-15.332-2.1385-26.066-1.0611-32.022 0.666-3.6821 0.63724-7.7356-0.085998-12.122-0.82562-5.0067-0.77926-7.1665 0.19301-8.9921 1.2856-2.4138 1.0443-13.354-0.47845-21.696-0.47295-2.591-0.32685-3.897 0.43594-3.897 0.63101 0 1.1473-0.43657 1.1473-0.97015s1.3527-3.2225 3.0061-5.9754c3.1811-5.2966 5.8742-14.906 4.8956-17.469-0.32094-0.84044-2.5027-1.8365-4.8483-2.2134-4.7209-0.75858-5.9724-2.495-4.2648-5.9171 1.9692-3.9464 4.1526-13.438 4.8539-21.1 0.51748-5.654 0.1366-10.07-1.6134-18.706-2.1082-10.403-2.1831-11.967-0.9396-19.618 1.6456-10.125 1.716-23.517 0.15225-28.986-0.78077-2.7309-0.84226-5.6011-0.18924-8.8332 0.53203-2.6333 1.4263-10.633 1.9873-17.778 0.56097-7.1445 1.6063-15.503 2.323-18.574 1.2441-5.332 1.1783-5.8088-1.4569-10.552-2.4527-4.4144-2.6376-5.4124-1.6616-8.9644 0.66488-2.4195 0.78838-6.4578 0.31293-10.232-1.0373-8.2349-0.97123-14.286 0.30642-28.048 0.94782-10.209 0.87092-11.698-0.72479-14.029-2.825-4.125-4.6504-21.118-3.6093-33.604 0.4846-5.812 0.6965-13.14 0.4709-16.283-0.73-10.171-0.5144-18.011 0.7287-26.5 1.5452-10.552 3.7493-16.973 7.0557-20.556 2.204-2.389 3.4535-2.8259 8.0808-2.8259 3.0102 0 5.7712-0.2994 6.1362-0.6654 0.364-0.366-0.122-1.9982-1.079-3.627-2.995-5.0943-0.874-5.8017 10.319-3.4417 12.759 2.6902 40.151 2.7071 64.384 0.039749 20.465-2.2525 42.606-1.8827 63.776 1.0653 13.005 1.811 13.182 1.8076 23.887-0.44956 10.971-2.3133 25.577-3.0609 25.577-1.3091 0 0.53073 0.73209 1.7006 1.6269 2.5998 1.4192 1.4261 4.8044 1.5692 26.514 1.1211 16.724-0.34522 25.364-0.91091 26.339-1.7246 0.96591-0.80554 9.0144-1.369 24.043-1.6832l22.591-0.47235 2.4431 2.455 2.4431 2.455 26.371-0.16313c19.196-0.11875 28.2-0.5853 33.093-1.7148 4.9935-1.1527 14.7-1.6182 37.747-1.8105 17.064-0.14233 31.568-0.18903 32.233-0.10377 0.66459 0.085255 2.1973 1.763 3.406 3.7282 1.2087 1.9653 3.9225 4.4204 6.0307 5.4558 2.4926 1.2242 4.7285 3.518 6.3934 6.559 2.4748 4.52 2.5612 5.3539 2.5854 24.941 0.0863 69.817-0.43249 107.09-1.5179 109.05-0.45779 0.82862-0.18773 3.6082 0.60581 6.2352 0.78751 2.607 1.4369 6.2265 1.443 8.0432 0.0104 3.0887-0.5199 3.9396-4.6043 7.3874-1.4224 1.2007-1.4161 1.7333 0.0612 5.196 4.0658 9.53 4.1243 10.256 3.3702 41.789-0.40321 16.861-0.80384 31.358-0.89029 32.215-0.60734 6.0236 1.5671 146.88 2.6955 174.61 0.94959 23.336-0.99636 31.46-8.3836 35-1.9385 0.92894-3.2844 2.0796-2.9908 2.5569 0.68791 1.1185-4.1838 1.0733-9.1469-0.0849-2.2634-0.5282-3.6337-0.51791-3.3 0.0248 0.33371 0.54256-49.73 0.92801-120.55 0.92801-80.482 0-120.9-0.34866-120.48-1.0392 0.41069-0.66773-3.2641-1.0392-10.28-1.0392-6.5903 0-10.92 0.41201-10.92 1.0392 0 0.6113-3.6195 1.0392-8.7903 1.0392s-8.7903-0.4279-8.7903-1.0392c0-0.57155-1.3961-1.0392-3.1024-1.0392-1.7064 0-3.1025 0.46764-3.1025 1.0392 0 0.68-17.426 1.0034-50.415 0.93561-27.728-0.057-49.252-0.478-47.83-0.93561zm122.04-133.41c0-2.5795-2.2792-5.2845-3.4562-4.1018-1.0897 1.095-0.78693 3.9715 0.56052 5.3255 1.9044 1.9137 2.8956 1.4947 2.8956-1.2237zm246.13 1.3785c0-1.5163-4.9261-3.419-17.344-6.6992-11.531-3.0458-15.578-2.9106-12.06 0.40276 1.0996 1.0357 4.7915 2.6946 8.2042 3.6864 3.4127 0.99181 7.3683 2.1936 8.7903 2.6707 3.7761 1.267 12.41 1.2247 12.41-0.0607zm-214.66-5.4888c-0.77961-2.0416-3.5428-2.3392-3.5428-0.38161 0 1.9334 2.3235 4.0042 3.3432 2.9796 0.47368-0.47599 0.5635-1.6451 0.1996-2.598zm178.47-5.6969c0-0.46569-1.5124-1.6584-3.361-2.6504-1.8486-0.99204-5.6878-3.1721-8.5318-4.8446-5.5077-3.239-9.0701-3.9922-8.2083-1.7354 0.63496 1.6628 5.479 4.6639 12.345 7.6484 5.6483 2.4552 7.7561 2.8851 7.7561 1.582zm-373.83-237.35c0.0353-8.558-1.8488-11.883-6.1233-10.805-3.3788 0.852-6.8234 6.238-6.8286 10.677-0.00304 2.5781 0.71675 3.735 3.3571 5.396 1.8485 1.1628 4.7571 2.0242 6.4635 1.9143l3.1025-0.19999 0.028816-6.9821zm447.24 380.57c0-0.57155 0.69806-1.0392 1.5512-1.0392 0.85318 0 1.5512 0.46764 1.5512 1.0392s-0.69805 1.0392-1.5512 1.0392c-0.85317 0-1.5512-0.46764-1.5512-1.0392z"/>
 <path id="path3546" fill="#6bc9e4" d="m-5.9393 458.58c1.8485-0.23052 4.8734-0.23052 6.722 0 1.8485 0.23052 0.3361 0.41914-3.361 0.41914s-5.2095-0.18862-3.361-0.41914zm143.14-1.57c-4.5954-2.8504-18.837-3.7025-38.57-2.3075-12.192 0.86192-20.95-1.3856-16.403-4.2095 0.56878-0.35324 1.0342-1.9409 1.0342-3.5282 0-1.9071 1.7538-5.0819 5.1708-9.3603 4.1167-5.1545 5.1682-7.2547 5.1583-10.302l-0.01246-3.8282-2.6419 4.6764c-6.2042 10.982-14.227 16.009-28.1 17.611-18.019 2.0794-40.912 3.3418-54.551 3.0081-16.651-0.40743-15.334 0.93577-12.393-12.644 1.5163-7.0024 1.5844-9.1694 0.48974-15.588-1.9665-11.53-2.4218-26.293-1.0162-32.949 1.0633-5.0347 0.99544-6.8183-0.44913-11.812-1.5346-5.3047-1.5457-6.105-0.11265-8.1609 2.1189-3.04 2.139-15.801 0.031244-19.862-2.1551-4.1524-2.0432-4.6094 2.4361-9.9474 2.1895-2.6093 5.5196-7.95 7.4001-11.868 2.7627-5.7561 3.2356-7.6515 2.4633-9.8715-0.81795-2.3511-1.6244-2.787-5.5903-3.0215-9.5519-0.56485-9.4065-0.38571-6.0542-7.4583 6.2105-13.103 7.0403-26.12 2.5515-40.028l-3.0048-9.3105 2.2921-6.7971c2.6819-7.953 3.1239-18.013 1.1204-25.503-0.76442-2.8578-1.3822-7.0665-1.3729-9.3528 0.028436-6.9744 4.4808-29.749 7.1453-36.549 3.4858-8.8964 3.3015-10.089-2.1412-13.852-5.1743-3.5774-5.3744-4.248-2.9837-9.9977 1.9682-4.7336 1.4627-12.978-1.1013-17.96-1.5205-2.9547-1.5284-3.7408-0.08673-8.6191 0.8725-2.9524 1.5864-7.9848 1.5864-11.183 0-3.7173 0.61432-6.6967 1.7028-8.2582 1.4313-2.0535 1.4725-2.576 0.25854-3.2777-5.3069-3.0674-7.0559-7.0798-7.1074-16.305-0.026606-4.7628 0.54952-5.2259 3.6557-2.9381 1.9957 1.4699 6.4166 1.2256 9.8801-0.54589 2.6187-1.331 2.0905-15.467-0.7255-19.257l-2.1047-2.833-4.3547 1.751c-6.4376 2.589-6.7371 2.429-5.995-3.193 0.359-2.72 0.1737-8.784-0.4119-13.476-0.9043-7.248-0.7642-10.01 0.9313-18.35 2.3342-11.481 2.2677-11.35 8.7319-17.263 4.4893-4.1068 5.5942-4.6037 11.133-5.0063 3.383-0.2459 6.428-0.8983 6.767-1.4499s-0.924-2.6001-2.807-4.5523c-2.1-2.1778-3.044-3.9054-2.443-4.4707 0.57482-0.54011 4.831-0.085371 10.288 1.0992 7.9519 1.7262 11.943 1.9393 27.405 1.4636 9.9537-0.30622 23.682-1.2578 30.507-2.1146 13.638-1.712 35.097-2.14 34.201-0.68204-0.31096 0.50561-2.5489 1.2465-4.9732 1.6464-5.0174 0.82766-19.614 7.7335-20.173 9.5441-0.25384 0.82223 2.3238 0.59302 8.2146-0.73047 4.7215-1.0608 14.751-2.2525 22.287-2.6484 7.5364-0.39582 13.703-1.1458 13.703-1.6665 0-0.52078-2.4432-2.0996-5.4293-3.5085l-5.4293-2.5616 10.342 0.42253c5.6878 0.23239 15.198 1.4578 21.135 2.7232 11.865 2.5292 9.4394 2.774 26.436-2.6675 9.5655-3.0624 14.995-2.2819 14.995 2.1554 0 1.1207 3.7779 1.4207 18.873 1.4987 10.38 0.053653 20.735 0.54765 23.01 1.0978 7.0001 1.6926 10.231 1.2315 15.379-2.1951l4.8752-3.2449 15.371 0.4388c10.137 0.28938 15.898 0.8784 16.919 1.7298 3.025 2.5228 8.7193 3.3011 28.636 3.9142 22.405 0.68967 45.781-0.70743 50.315-3.0072 2.2341-1.1331 9.7241-1.6518 31.067-2.1515 31.094-0.72797 29.567-1.0254 30.149 5.8752 0.19726 2.3397 4.667 6.5732 9.6358 9.1264 2.742 1.409 4.5142 3.4633 6.4071 7.4273 3.5405 7.4141 4.0318 17.104 2.7011 53.283-1.2296 33.429-1.2368 34.35-0.42863 54.629 0.51768 12.99 0.37266 15.332-1.0211 16.495-2.109 1.7588-2.0512 3.0103 0.48824 10.585 2.3395 6.9787 1.9889 8.1219-3.1467 10.26-4.3211 1.7986-4.7627 4.4597-1.6311 9.8294 1.4658 2.5134 2.6651 5.1512 2.6651 5.8618 0 0.71055 0.77651 2.1541 1.7256 3.2079 1.3584 1.5083 1.6832 3.7416 1.5263 10.496-0.10958 4.7189-0.60848 11.142-1.1087 14.273-0.52667 3.2973-0.51918 10.935 0.0178 18.147 0.90613 12.17 0.63985 16.124-1.0859 16.124-1.6176 0-2.0484 3.1421-0.8205 5.9844 0.87187 2.0181 1.3039 15.424 1.4816 45.975 0.13795 23.72 0.64994 51.544 1.1378 61.832 0.48781 10.288 0.60962 20.108 0.27071 21.823-0.33893 1.7147-0.32224 16.211 0.0371 32.215l0.65332 29.098-2.5214 5.5759c-1.563 3.4564-3.3291 5.7881-4.6462 6.1342-1.1686 0.30709-4.0381 1.5601-6.3766 2.7845-3.0291 1.586-5.144 2.0239-7.3543 1.5229-6.3746-1.445-8.7903-1.1087-8.7903 1.2236 0 2.1151-0.29511 2.1532-11.117 1.4372-20.789-1.3754-56.103-1.7208-56.103-0.54866 0 1.3279-25.975 1.5387-27.457 0.22282-0.54034-0.47996-2.6112-1.4898-4.602-2.2442-1.9907-0.75434-4.3934-2.3305-5.3391-3.5025-1.6698-2.0693-1.8793-2.082-7.2391-0.43684-3.0357 0.93179-8.079 2.0026-11.207 2.3795-6.4774 0.78048-12.41 2.6191-12.41 3.8462 0 1.2656-21.556 0.99018-23.967-0.30626-1.3937-0.74955-12.175-1.1232-31.653-1.0971-27.636 0.0371-29.722-0.0906-32.364-1.9809-2.2877-1.637-4.5604-2.019-11.972-2.0127-5.0313 0.004-12.121 0.49261-15.754 1.0851-6.1711 1.0062-6.7671 0.92584-9.0386-1.2185-2.092-1.9749-2.8014-2.1266-5.0761-1.0851-1.4544 0.66588-4.3675 1.2124-6.4737 1.2146-3.902 0.004-10.551 3.2663-10.551 5.1768 0 1.4692-1.0188 1.2125-5.0078-1.2617zm148.3-40.314c5.1353-1.962 20.579-5.4106 25.276-5.6446 10.147-0.50519 10.476-0.91789 1.5512-1.9464-11.716-1.3502-31.043-1.1944-36.546 0.29466-4.1448 1.1215-8.9382 5.6672-7.847 7.4414 0.77895 1.2665 14.16 1.1559 17.566-0.14519zm-258.66-7.48c2.5838-3.7068 1.8963-11.2-1.0275-11.2-2.2281 0-4.6017 4.3182-4.6017 8.3716 0 5.7003 2.6865 7.0501 5.6292 2.8283zm17.086-4.8964c2.7563-5.1753 0.22489-6.8277-4.6079-3.0077-2.6955 2.1306-2.75 2.3336-0.97596 3.6372 2.6114 1.9188 4.3298 1.7251 5.5838-0.62948zm134.88-11.51c-0.57352-0.57632-3.6932-1.9839-6.9326-3.128s-9.9601-3.9911-14.935-6.3266c-12.165-5.711-21.972-9.4247-21.972-8.3203 0 0.49731 1.3625 1.4713 3.0277 2.1644 1.6652 0.69314 3.8757 2.2044 4.9122 3.3583 1.0365 1.154 5.0922 3.7228 9.0128 5.7084 5.4426 2.7566 7.9054 3.4638 10.415 2.9908 2.3887-0.45031 4.5375 0.0723 7.867 1.9134 4.6116 2.55 10.658 3.702 8.6052 1.6395zm-49.01-20.746c-2.8072-2.1748-7.1318-3.6009-8.0678-2.6604-1.0038 1.0087 1.5215 2.8188 5.128 3.6756 5.3444 1.2697 5.7211 1.1396 2.9397-1.0152zm296.75-42.091c2.1944-1.1403 3.0346-2.1171 2.3837-2.7712-1.0664-1.0717-13.464-4.8051-33.876-10.201-10.094-2.6687-15.208-4.7968-27.405-11.407-21.533-11.669-23.786-12.747-23.786-11.391 0 0.65412 3.7577 4.9049 8.3504 9.4462 6.5005 6.4277 10.338 9.2313 17.322 12.655 4.9344 2.419 10.143 5.1744 11.574 6.1233 3.4176 2.2657 9.7736 4.5433 21.183 7.5909 10.506 2.8061 18.796 2.7905 24.254-0.0456zm-255-1.844c1.233-4.6233 0.60716-9.2506-1.9322-14.286-3.0399-6.0283-5.5841-7.8238-8.2795-5.8433-2.426 1.7826-2.5152 11.335-0.14876 15.934 3.1484 6.118 9.1947 8.5665 10.36 4.1956zm32.515-4.6061c0.40759-2.877-2.3256-8.2605-6.2349-12.281l-3.0314-3.1176-1.9968 2.4606c-1.5268 1.8815-2.322 2.1893-3.3788 1.308-1.7832-1.4872-2.7446-0.46841-2.7364 2.8996 0.004 1.7878 0.95439 3.2925 2.8439 4.5044 1.5606 1.0009 4.4477 3.008 6.4158 4.4602 4.2136 3.1092 7.659 3.0098 8.1186-0.23428zm201.27-33.55c3.1201-1.1921 3.5836-5.3378 1.1261-10.074-0.83966-1.6181-2.4789-5.2464-3.6427-8.0628-2.414-5.8421-3.6747-5.4253-4.4881 1.4836-0.3028 2.572-0.85707 6.1344-1.2317 7.9163-0.77892 3.7049 1.7795 9.75 4.1264 9.75 0.80155 0 2.6511-0.45606 4.1101-1.0135zm-46.121-21.13c3.8244-7.8043 5.0435-9.3924 8.2732-10.778 6.2865-2.6967 6.8903-3.1001 6.8903-4.6035 0-2.1242-6.2126-2.3956-10.978-0.47955-2.2325 0.8976-4.9261 1.632-5.9858 1.632-2.1954 0-3.4936-3.5309-2.241-6.0951 1.5481-3.1692 2.953-8.3307 2.4148-8.8716-0.87122-0.87548-5.7518 2.0832-8.6789 5.2614-6.2077 6.74-6.1827 11.428 0.0438 8.1925 1.7884-0.92933 3.7034-1.4092 4.2554-1.0663 1.4431 0.89624 1.1715 4.7535-0.54745 7.7751-0.81286 1.4289-1.4944 4.5521-1.5146 6.9404s-0.70575 5.0147-1.5235 5.8365c-1.2931 1.2994-1.2802 1.7906 0.0985 3.7686 2.6559 3.8103 4.761 2.1445 9.4933-7.5125zm-264.2 4.38c6.5813-3.0948 11.581-4.743 23.181-7.642 3.0062-0.75126 6.2637-2.0885 7.2391-2.9717 0.97532-0.88316 3.0531-1.9267 4.6172-2.319 1.5642-0.39226 2.8439-1.1182 2.8439-1.6131 0-1.0674-4.6224-3.5236-8.2843-4.402-1.428-0.34255-7.0131-0.71531-12.411-0.82836-11.604-0.24303-16.782 1.5744-25.286 8.8749-5.0268 4.3155-8.6016 10.915-7.1717 13.24 1.1642 1.8929 8.7398 0.7327 15.272-2.3389zm-4.017-74.312c6.2651-0.84401 13.475-1.7652 16.023-2.047 4.9396-0.54651 8.3627-2.5314 4.3656-2.5314-1.564 0-2.2751-0.63157-2.2751-2.0204 0-3.4249-4.3402-6.9498-10.859-8.8188-7.68-2.2021-13.026-1.2246-24.087 4.404-6.9612 3.5424-7.5174 4.067-7.2391 6.8272 0.24844 2.4636 1.1207 3.3226 4.9552 4.8796 2.5595 1.0393 5.3448 1.6538 6.1894 1.3656 0.84466-0.28828 6.6618-1.2147 12.927-2.0587zm135.63-64.89c-0.0936-3.5859-0.41316-4.1535-2.1943-3.897-3.2076 0.46189-3.4674 5.7383-0.34443 6.9968 1.318 0.53112 2.453 0.99529 2.5223 1.0315 0.0693 0.0363 0.0766-1.8229 0.0164-4.1313zm141.02-6.653c0-1.3952 0.44505-2.8131 0.989-3.1509 1.9169-1.1905-0.12908-3.4137-5.6345-6.1226-6.5465-3.2211-7.3235-3.3133-8.2166-0.97472-0.43267 1.133 0.23998 2.7126 1.8807 4.4166 1.4049 1.459 3.7312 3.9387 5.1696 5.5105 3.2898 3.5947 5.8118 3.7341 5.8118 0.32114zm-136.31-1.5528c1.3993-1.1061 6.16-3.7357 10.579-5.8435l8.0348-3.8324 14.897 0.45036c8.1934 0.2477 14.897 0.1287 14.897-0.26444 0-0.39313-0.69805-1.297-1.5512-2.0085-0.85317-0.71152-1.5512-1.8878-1.5512-2.614 0-1.4593-2.2475-2.5819-5.1692-2.5819-1.0437 0-2.0609-0.49238-2.2605-1.0942-0.47044-1.4182-7.3511-3.0063-13.162-3.0378-11.895-0.0646-25.122 8.5692-27.491 17.944-1.3687 5.4168-0.96252 5.8383 2.7775 2.882zm-17.778 0.13132c0-0.46232-0.67734-1.7483-1.5052-2.8578-1.062-1.4233-1.339-3.547-0.94061-7.2132 0.56356-5.1865-0.79383-10.912-2.5871-10.912-1.5904 0-4.2769 8.0893-4.2346 12.751 0.0341 3.7694 0.51297 4.7147 3.361 6.6357 3.4927 2.3558 5.9065 3.0079 5.9065 1.5957zm191.8-22.684c0.61728-3.8203 0.34174-4.7029-2.4742-7.9257-4.167-4.769-8.1622-6.3218-14.818-5.7591-11.179 0.94517-14.779 5.1883-9.066 10.688l3.1629 3.045 3.1906-1.8939c5.8792-3.4899 14.201-0.71149 16.577 5.5346 1.2276 3.227 2.5374 1.8172 3.4271-3.6888zm-310.21 1.6597c3.9815-0.66042 8.9842-1.1799 11.117-1.1544 3.8788 0.0465 5.0145-1.0934 2.59-2.5992-6.3354-3.9346-29.736-0.0292-29.736 4.9627 0 1.1788 2.9954 0.95282 16.029-1.2092zm64.359 351.16c0.70151-0.71021 1.536-1.0295 1.8544-0.70955 0.31841 0.31996-0.25554 0.90104-1.2754 1.2913-1.4739 0.56395-1.5926 0.44459-0.57892-0.58174z"/>
 <path id="path3544" fill="#4fb2d1" d="m-5.9208 458.58c1.8587-0.23128 4.6509-0.22651 6.2049 0.0106 1.554 0.23713 0.033187 0.42636-3.3795 0.42053-3.4127-0.006-4.6841-0.19984-2.8254-0.43113zm277.91-0.28606c-0.36393-0.59172 0.52668-1.0392 2.0683-1.0392s2.4322 0.44747 2.0683 1.0392c-0.35153 0.57156-1.2823 1.0392-2.0683 1.0392-0.78603 0-1.7168-0.46764-2.0683-1.0392zm62.566 0c0-0.57155-0.65927-1.0392-1.465-1.0392-0.80577 0-1.6202-0.36792-1.8098-0.8176s-3.0386-2.1297-6.3312-3.7333c-5.6277-2.741-6.5883-2.8842-16.029-2.3901-5.5236 0.28908-14.231 1.0296-19.35 1.6455-7.5362 0.9068-18.727 1.7665-31.643 2.4308-4.4824 0.23055-7.3557-0.47183-9.0998-2.2245-2.1068-2.1171-1.8442-2.1486-25.443 3.0485-2.2751 0.50104-6.8036 0.93136-10.063 0.95625-5.6396 0.043-5.9568-0.0931-6.5498-2.8125-1.416-6.4938-0.45095-6.3327-17.843-2.9792-9.7558 1.881-15.136 1.2082-18.661-2.3341-1.6202-1.6281-3.4867-2.2209-6.993-2.2209-5.6159 0-16.365 4.3283-19.729 7.944-2.8775 3.0933-3.2666 3.0731-10.421-0.54158-6.7357-3.4033-20.476-6.1777-22.169-4.4764-0.58473 0.58759-1.6187 0.85409-2.2978 0.59223-0.67906-0.26186-2.6002 0.23944-4.2691 1.114-4.1142 2.1559-5.6141 2.013-9.209-0.87736-2.5148-2.0219-2.8437-2.7464-1.8134-3.9939 1.0144-1.2282 0.86269-1.884-0.78165-3.3794-2.3142-2.1045-1.8736-3.656 1.0381-3.656 2.6201 0 3.6406-2.2117 5.0348-10.912 1.1947-7.4545 0.18734-13.329-2.8003-16.331-1.7178-1.7262-2.3229-0.64906-2.8357 5.0483-0.2551 2.8339-1.9293 7.9905-3.817 11.757-3.9663 7.9132-9.734 12.825-17.651 15.032-6.4791 1.8061-30.815 3.7555-55.764 4.467-20.696 0.59015-21.492 0.29737-17.377-6.3922 3.2213-5.2376 3.3197-18.49 0.20112-27.09-2.4177-6.6669-2.409-11.163 0.049937-25.812 1.0375-6.1809 0.95152-7.8198-0.66024-12.585-1.7649-5.2177-1.7673-5.6099-0.048637-8.2456 2.3851-3.6579 1.6929-16.229-1.1633-21.125l-1.9468-3.3373 4.2356-4.4567c2.3296-2.4512 5.5668-6.3273 7.1939-8.6135 1.627-2.2862 5.1873-6.5839 7.9116-9.5504 2.7244-2.9665 4.9534-5.8144 4.9534-6.3286 0-2.1-8.126-3.6293-15.438-2.9053-6.9444 0.68763-7.3135 0.61532-7.3135-1.4329 0-1.1864 1.3713-4.6051 3.0474-7.5971 5.9966-10.73 7.2405-26.8 2.8165-36.51-3.0181-6.62-3.3502-9.64-1.6727-15.19 4.1545-13.74 5.23-22.01 3.0391-23.37-0.5688-0.36-1.0342-1.62-1.0342-2.81 0-1.1897-0.98954-4.1541-2.199-6.5876l-2.199-4.4245 2.8188-7.4127c1.5503-4.077 3.0694-9.3856 3.3756-11.797 0.66501-5.2361 2.3899-8.8916 6.353-13.463 2.1882-2.5242 3.0717-4.8048 3.4552-8.9187 0.58566-6.2825-0.67107-7.7649-7.6724-9.05-2.1032-0.38606-4.6627-1.3182-5.6878-2.0715-1.767-1.2984-1.7295-1.5133 0.72146-4.1329 2.1833-2.3336 2.6753-4.0839 3.1636-11.255 0.54651-8.0258 0.44275-8.6069-1.8909-10.589l-2.4692-2.0976 1.4041-11.336 1.4041-11.336 4.0638-2.2862c2.2351-1.2574 4.1977-2.6946 4.3613-3.1937 0.16363-0.49918-2.018-0.91082-4.8481-0.91476-6.6715-0.009-9.1512-2.3642-9.9908-9.4878l-0.6163-5.217 8.3027-1.977 8.3026-1.977-0.246-9.957c-0.136-5.476-0.624-10.571-1.085-11.32-0.618-1.006-2.5652-1.202-7.4154-0.747l-6.5769 0.61716v-4.0752c0-2.2414-0.53402-7.6832-1.1867-12.093-1.0286-6.9497-0.9374-8.9972 0.68481-15.371 1.8874-7.4151 5.0454-12.481 9.1371-14.658 1.2229-0.65047 4.9648-2.6634 8.3154-4.4732 3.783-2.0434 7.5815-3.2905 10.022-3.2905 5.3253 0 5.8276-1.4421 1.7711-5.0842-1.873-1.6817-3.086-3.3786-2.6955-3.7709 0.39043-0.39233 5.7408-0.13881 11.89 0.56339 11.81 1.3487 20.837 0.99861 42.861-1.6621 7.184-0.86788 16.259-1.4382 20.166-1.2675l7.1042 0.31048-6.3532 3.1999c-3.49 1.7619-8.842 5.0352-11.888 7.276l-5.5396 4.0741 7.2391 0.33314c3.9815 0.18322 10.729-0.36586 14.995-1.2202 4.2659-0.85432 14.86-2.3604 23.541-3.3468 9.0922-1.033 16.547-2.3902 17.581-3.2009 1.6652-1.3054 1.5706-1.6008-1.3072-4.0773l-3.1025-2.6699 6.6315 0.71764c3.6473 0.3947 9.6956 1.5982 13.441 2.6744 8.1027 2.3285 12.283 2.4575 16.864 0.52068 6.2764-2.6541 13.715-4.8094 16.582-4.8042 2.2536 0.00407 2.8472 0.49049 2.8598 2.3433 0.0317 4.6831 1.1347 5.1295 8.1876 3.3138 7.3857-1.9014 12.836-1.5777 30.577 1.8157 8.7562 1.6748 13.674 3.3242 21.356 7.1627 9.4648 4.7293 10.066 4.892 11.634 3.1502 2.832-3.1446 2.0677-7.5784-1.9654-11.401-5.6193-5.3262-4.9411-6.3794 4.1079-6.3794 4.9236 0 11.396 0.9561 17.839 2.635 14.074 3.6677 32.701 4.9831 59.751 4.2196 17.965-0.50707 24.383-1.0796 30.508-2.7214 7.8952-2.1165 46.927-5.0028 50.262-3.7168 1.3862 0.53452 1.3649 0.95945-0.17976 3.5871-1.6899 2.8747-1.6663 3.0975 0.66305 6.2635 1.3284 1.8055 4.9675 4.4569 8.0869 5.892 3.2147 1.4789 7.5645 4.681 10.041 7.3916 3.9786 4.3547 4.4233 5.3973 4.9727 11.66 0.33187 3.7825 0.46461 20.378 0.29499 36.878-0.28267 27.498-0.46394 30.115-2.1727 31.371-2.0489 1.5055-1.9155 6.0902 0.43696 15.009 0.67837 2.572 1.4598 9.1782 1.7366 14.68 0.52304 10.399 0.49399 10.493-4.228 13.77-1.9028 1.3204-1.8802 1.5351 0.77562 7.3645 4.042 8.872 3.7533 10.684-1.9464 12.216-2.5751 0.69209-5.6327 2.2753-6.7947 3.5181l-2.1126 2.2598 4.7264 4.8868c2.5995 2.6878 4.7264 5.461 4.7264 6.1628 0 0.70181 1.2264 2.3475 2.7253 3.6572 2.6143 2.2842 2.7019 2.7044 2.1503 10.32-0.31625 4.3661-1.3948 10.437-2.3967 13.492-1.5819 4.8224-1.6477 6.1904-0.50012 10.392 0.72686 2.6612 1.5721 8.6447 1.8783 13.297 0.54387 8.2624 0.49369 8.4997-2.1672 10.252-3.2403 2.1335-3.4561 4.7752-0.70352 8.6112 1.9032 2.6522 2.0283 4.8671 2.1546 38.148 0.1652 43.524 0.37032 39.598-2.2043 42.185l-2.1658 2.1764 2.6169 5.8774c2.4188 5.4324 2.6284 7.1363 2.7687 22.505 0.0834 9.1449-0.0331 27.85-0.259 41.568-0.22591 13.717-0.001 27.125 0.49964 29.796 1.3731 7.3226-2.0006 12.451-12.487 18.982l-4.4699 2.7838-7.792-1.6193c-4.2856-0.89061-8.5566-1.6044-9.4911-1.5862-1.523 0.0296-1.5116 0.17615 0.11062 1.4136 2.7557 2.1021 2.1733 3.5825-1.5512 3.9433-6.1726 0.59805-20.881-0.97788-26.085-2.7948-8.4174-2.9392-23.207-2.8929-32.604 0.10215-4.2659 1.3597-8.5705 2.4781-9.5659 2.4854-0.99537 0.007-1.8098 0.48091-1.8098 1.0525 0 0.57733-2.7577 1.0392-6.2049 1.0392s-6.2049-0.46186-6.2049-1.0392zm-64.893-12.132c-1.294-0.90708-2.3268-2.7166-2.3268-4.0766 0-2.1698 0.28737-2.3357 2.5488-1.4718 2.3654 0.90373 4.7596-0.22605 2.8974-1.3672-2.1258-1.3027-14.714-1.8273-18.602-0.77514-4.8289 1.3066-13.445 7.9146-11.402 8.7438 0.70889 0.28759 7.5714 0.53528 15.25 0.55042 12.979 0.0256 13.797-0.0872 11.634-1.6035zm87.644-18.983c0-0.53783-0.46537-1.2669-1.0342-1.6201-0.56879-0.35325-1.0342-1.5337-1.0342-2.6232 0-6.5895-13.676-13.686-30.011-15.573-11.136-1.2864-32.119-1.3025-43.104-0.033-12.034 1.3905-31.467 9.7747-29.62 12.779 0.33158 0.53912 1.326 0.24295 2.2282-0.66362 1.4624-1.4695 1.8082-1.4746 3.3747-0.05 0.95995 0.87298 4.932 2.0858 8.8268 2.6951 5.8177 0.91016 8.8033 0.78216 16.73-0.71723 8.9989-1.7022 10.324-1.7133 19.67-0.16615 13.791 2.2829 19.183 2.9491 27.602 3.4107 3.9815 0.21828 9.7986 1.0523 12.927 1.8534 6.7434 1.7269 13.444 2.08 13.444 0.70855zm-330.57-16.7c3.1641-3.7786 4.2848-10.253 3.0803-17.796l-0.89129-5.5811-4 6.6009c-4.303 7.1008-5.7791 13.958-3.8032 17.668 1.5798 2.9662 2.507 2.8189 5.6143-0.89196zm21.745-9.7674c6.1146-6.9986 6.9858-8.9398 4.0044-8.9231-4.3715 0.0245-17.881 8.5162-17.823 11.203 0.0365 1.6997 1.7001 3.1566 4.1208 3.6086 1.422 0.26557 2.8776 0.54654 3.2347 0.62437 0.35713 0.0778 3.2657-2.8531 6.4635-6.5132zm42.009-0.018c0-2.5284-9.2205-10.994-11.974-10.994-3.211 0-3.3344 2.8446-0.1769 4.0776 1.2798 0.49973 4.1883 2.5731 6.4635 4.6074 4.548 4.0666 5.6878 4.5293 5.6878 2.3086zm98.826-1.7455c0.40006-0.65044 1.9878-0.8858 3.6806-0.54558 4.924 0.98961 3.3558-1.1361-2.4523-3.3241-22.654-8.5342-34.828-13.564-51.513-21.281-18.125-8.3842-28.726-12.155-34.17-12.155-2.1934 0-2.027 0.37462 1.9957 4.4934 2.4468 2.5052 7.461 5.9262 11.332 7.7316 18.13 8.4546 43.84 19.306 50.193 21.184 3.8795 1.1471 8.5332 2.7323 10.342 3.5226 3.9857 1.7421 9.6275 1.9416 10.591 0.37451zm193.93-22.27c1.6967-0.88168 2.8017-2.0636 2.4555-2.6265-0.34619-0.56287 0.41113-3.1834 1.683-5.8234 2.2661-4.7039 2.2728-4.8302 0.33707-6.3074-2.9004-2.2132-19.668-1.1342-25.524 1.6426-2.4052 1.1404-7.0588 2.9025-10.341 3.9159-4.6424 1.4332-6.3044 2.5194-7.481 4.8896-0.832 1.6759-1.259 3.4596-0.94894 3.9638 0.53107 0.86348 13.466 0.52262 26.425-0.6963 4.6303-0.43556 5.9462-0.221 6.431 1.0486 0.77489 2.0292 3.0507 2.027 6.9646-0.007zm-96.965-26.842c7.95-7.9887 8.0813-14.982 0.41909-22.312-3.0343-2.9029-3.9699-3.2911-5.6956-2.363-1.736 0.93362-2.1599 0.74493-2.6622-1.185-0.39703-1.5257-0.94312-1.948-1.6284-1.2594-1.2883 1.2946-1.533 4.5793-1.2942 17.374 0.16036 8.591 0.50374 10.448 2.2574 12.211 1.1376 1.1431 2.5214 2.0784 3.0752 2.0784 0.55382 0 3.0416-2.0446 5.5285-4.5436zm141.07-15.238c2.7455-0.59167 6.3308-2.1486 7.9673-3.4599l2.9755-2.3842-4.3337-1.7424c-3.9852-1.6024-22.865-6.8911-32.699-9.1601-16.728-3.8594-35.437-12.747-60.086-28.545-12.327-7.8999-24.217-12.256-25.937-9.5018-0.46523 0.7451-2.1256 1.9194-3.6898 2.6096-3.5838 1.5813-3.5599 2.5943 0.20071 8.4828 4.2836 6.7074 9.0275 10.947 15.177 13.565 3.2568 1.3862 5.7363 3.227 6.4413 4.7819 0.63045 1.3904 1.6035 2.5281 2.1623 2.5281 0.55882 0 1.8486 0.85595 2.8661 1.9021 2.607 2.6803 11.945 5.0975 20.465 5.2972 8.7678 0.20551 9.0272 0.27823 20.683 5.798 5.119 2.4242 13.961 5.6785 19.649 7.2319 5.6878 1.5533 10.807 2.9782 11.376 3.1663 2.3249 0.7689 12.113 0.43665 16.783-0.56967zm-255.6-5.9388c0.34632-1.5718 1.0893-4.3776 1.6511-6.2352 0.67468-2.2307 0.67157-4.524-0.009-6.7548-0.56685-1.8576-1.3226-5.4818-1.6795-8.0538-0.79243-5.7108-2.8887-8.8315-5.3063-7.8993-0.98524 0.37991-2.5159-0.0211-3.5014-0.91728-2.7877-2.5351-5.2042 1.0791-6.2189 9.3013-1.2947 10.491 1.3152 16.93 8.6943 21.452 4.3311 2.654 5.6284 2.4722 6.3698-0.89272zm33.184-3.9529c0.33913-0.88807-0.20689-3.4498-1.2134-5.6926-2.2144-4.9346-1.6359-12.366 1.4333-18.411 2.6626-5.2446 3.3894-5.7893 12.751-9.5562 8.4326-3.393 16.408-4.1294 22.315-2.0602 1.7511 0.61342 4.4964 0.9527 6.1007 0.75397l2.9169-0.36133-4.3972-4.3515c-5.6647-5.6058-12.494-7.816-20.167-6.5265-20.729 3.4836-40.057 19.764-41.298 34.786-0.31546 3.8186-0.15648 4.0124 6.9162 8.4271 7.6785 4.793 13.501 5.9828 14.643 2.9923zm62.514-22.076c-1.1724-2.2014-4.15-3.779-5.1728-2.7406-0.34518 0.35046 0.75032 1.7437 2.4344 3.0961 3.4513 2.7714 4.3421 2.6558 2.7383-0.35549zm134.4 0.79137c1.1002-0.59166 2.0003-1.5734 2.0003-2.1816 0-0.60819 1.6938-3.8634 3.7641-7.2338 3.3555-5.4629 3.6995-6.6642 3.1695-11.068-0.88278-7.3348-6.1015-17.972-10.998-22.418-2.318-2.1044-4.8209-3.8262-5.5619-3.8262-0.74103 0-2.9211-1.1668-4.8446-2.5928s-6.9003-3.6199-11.06-4.8752c-4.1592-1.2554-7.5622-2.5791-7.5622-2.9416 0-0.36256 1.1481-1.743 2.5513-3.0677 2.225-2.1005 3.268-2.3341 8.1568-1.8271 6.5269 0.67691 11.64 3.0393 12.505 5.7772 0.33471 1.0597 2.7184 3.4493 5.297 5.3102s6.3682 5.2077 8.4211 7.4374c2.053 2.2297 4.6322 4.054 5.7317 4.054s2.2262 0.87306 2.5039 1.9401c0.67524 2.5947 8.1255 5.123 10.51 3.5665 2.4555-1.6029 1.7141-7.2107-1.6211-12.261-3.1436-4.7605-9.4884-10.815-11.394-10.873-0.70933-0.0215-3.1113-1.6928-5.3377-3.714-3.8932-3.5344-10.17-7.5126-15.607-9.8921-3.7524-1.6421-19.181-1.616-26.212 0.0445-17.727 4.1863-28.536 19.541-25.438 36.135 1.0714 5.7387 1.5356 6.5798 3.9394 7.1382 1.4987 0.34815 3.8096 1.3144 5.1353 2.1471 1.3257 0.83278 3.0196 1.2792 3.7642 0.9921 0.7446-0.28712 3.3263-4.0058 5.7371-8.2637 7.4126-13.092 15.227-14.567 27.654-5.2185 5.7876 4.3538 7.4101 8.9454 6.7476 19.096-0.31518 4.8288-1.187 10.001-1.9374 11.494-1.2929 2.5722-1.1637 2.8526 2.4665 5.3523 4.4915 3.0928 4.8848 3.1854 7.5184 1.7691zm-320.75-21.2c6.9655-1.3956 13.247-3.0235 13.959-3.6175 0.71223-0.59398 7.3077-2.7453 14.657-4.7808 7.3489-2.0354 14.679-4.3825 16.289-5.2157 1.6102-0.8332 3.4113-1.5149 4.0024-1.5149 2.151 0 10.059-5.7596 10.096-7.353 0.0665-2.8823-4.8294-6.358-11.016-7.8208-9.4488-2.2341-25.685-1.8662-31.346 0.71015-10.628 4.8368-22.478 13.591-26.425 19.522-1.3816 2.0762-3.522 5.0394-4.7563 6.5848-1.8662 2.3365-2.0207 3.0804-0.91717 4.4166 1.6532 2.0018 0.46432 2.0733 15.457-0.9307zm210.89-44.59c0.55892-2.942-4.5917-6.0123-15.621-9.3119-2.44-0.72994-3.7148-1.6634-3.3995-2.4892 0.27752-0.7267-0.4513-1.8353-1.6196-2.4636-3.0254-1.627-16.445-2.4055-19.516-1.1322-2.5404 1.0532-2.5444 1.073-0.23136 1.1378 4.1203 0.1153 15.744 2.5896 15.744 3.3514 0 0.40325-1.2798 0.88116-2.8439 1.062-3.5555 0.41109-4.3065 3.8232-1.4194 6.4488 5.7717 5.2488 28.058 7.8677 28.908 3.397zm-82.557-27.256c1.9908-0.73502 5.83-2.1352 8.5318-3.1114 2.7017-0.97625 4.9122-2.3629 4.9122-3.0814 0-1.6752 2.8492-2.8119 3.3399-1.3325 0.2111 0.63635 1.3089 0.81963 2.546 0.42507 1.5722-0.50144 2.0207-1.2859 1.6186-2.8311-0.63518-2.4408-3.3093-2.3392-14.227 0.54056-3.4127 0.90021-8.8533 1.644-12.09 1.653-3.2785 0.009-6.2086 0.54186-6.6152 1.2029-0.53839 0.87537 1.5482 0.9907 7.9536 0.43963 6.4506-0.55496 8.39-0.44497 7.5423 0.42773-0.62767 0.64613-3.1493 1.3595-5.6036 1.5852-6.1535 0.56601-10.319 2.4687-10.319 4.7138 0 3.2865 2.0859 3.1804 12.41-0.63144zm-27.08 0.85176c-0.20699-1.0968-1.4684-1.9491-3.1783-2.1474-3.1905-0.37004-3.77 1.2372-1.0253 2.8436 2.77 1.6213 4.5842 1.3208 4.2036-0.69616zm-95.985-7.4624c3.6971-0.60151 14.562-1.0923 24.144-1.0906 21.319 0.004 28.598-1.6209 28.598-6.3828 0-1.5052 0.76812-1.9548 3.361-1.9671 5.9052-0.028 6.7731-1.5964 2.1848-3.9486-6.0145-3.0834-28.89-10.466-36.046-11.634-9.3653-1.5277-25.122-1.2436-32.108 0.57908-5.6162 1.4654-6.9674 2.4344-15.212 10.91-10.216 10.502-11.143 13.015-5.1708 14.019 2.1329 0.35848 4.3434 0.83255 4.9122 1.0535 1.6612 0.64525 18.017-0.34842 25.337-1.5393zm291.14-11.49c0.0117-4.3777-0.58588-7.8519-1.6982-9.8724-0.94398-1.7147-2.0549-4.7232-2.4688-6.6856-0.76825-3.6429-7.5423-16.951-8.9296-17.543-0.4215-0.17981-0.50803-1.0034-0.19229-1.8302 0.32381-0.84796-1.1667-3.6365-3.4191-6.3966-2.1962-2.6913-4.5539-6.5441-5.2393-8.5618-0.68537-2.0176-2.2637-4.3699-3.5073-5.2272-2.3203-1.5995-5.8329-5.0021-12.469-12.078-4.7-5.0117-11.782-9.9846-15.87-11.144-4.9278-1.3976-11.895-2.0102-11.866-1.0434 0.0145 0.48622 2.3817 3.6899 5.2606 7.1192 2.8789 3.4294 7.047 8.6588 9.2624 11.621s5.3566 6.1745 6.9804 7.1384 3.8308 3.3914 4.9042 5.3945c1.0735 2.0031 3.0109 4.3393 4.3054 5.1916 1.3008 0.85647 2.3536 2.6014 2.3536 3.9009 0 1.2932 0.64743 2.8912 1.4387 3.5511 0.79131 0.65993 1.6632 2.4708 1.9376 4.0242 0.27434 1.5534 2.0263 6.3316 3.8933 10.618 3.2548 7.4734 4.3357 10.094 7.1286 17.284 2.2647 5.8305 10.608 12.003 15.592 11.536 2.4657-0.23128 2.5862-0.55515 2.6035-6.9973zm41.233-28.911c0.28827-0.4687-4.2216-3.2589-10.022-6.2005-21.567-10.937-25.548-14.738-20.371-19.447 1.1376-1.0345 2.0683-2.5242 2.0683-3.3104 0-3.4226-16.457-15.447-29.902-21.847-7.7626-3.6955-11.43-4.8077-18.098-5.488-8.874-0.90535-10.947-0.28627-10.947 3.2687 0 2.3429 5.2168 7.7919 13.738 14.349 3.3691 2.5926 8.055 6.2152 10.413 8.0502 2.3583 1.835 5.6103 3.6352 7.2267 4.0005 4.6862 1.0591 16.173 7.1143 22.915 12.079 14.101 10.385 30.963 17.822 32.978 14.545zm-107.95-22.6c0-2.7395-1.9456-5.8869-7.4771-12.096-1.5529-1.7431-2.5725-3.5772-2.2658-4.0759 0.30669-0.49865 0.23929-1.4242-0.14976-2.0568-0.50177-0.81582-0.94008-0.7718-1.5079 0.15142-1.136 1.8472-4.1117 0.41408-4.1117-1.9802 0-2.6904-4.3796-10.298-6.9838-12.131-1.151-0.81014-6.1534-2.9494-11.116-4.754-8.4251-3.0634-9.6556-3.2406-18.554-2.6713-15.114 0.96695-29.163 6.4406-32.861 12.803-2.4476 4.2114-4.9443 13.893-4.9443 19.172 0 3.9392 0.23615 4.2447 4.8001 6.2106 2.64 1.1372 4.9589 1.908 5.1531 1.7128 0.19416-0.19511-0.10439-1.9574-0.66344-3.9162-0.55906-1.9588-1.0165-4.1133-1.0165-4.7876 0-2.6146 5.4333-7.502 12.471-11.218 7.2662-3.8369 7.5074-3.8854 19.419-3.9069 10.064-0.0181 13.089 0.36905 18.266 2.3377 8.9472 3.4022 16.693 8.6681 23.786 16.17 6.5208 6.8972 7.7562 7.6994 7.7562 5.0365zm-95.654-14.74c-2.607-6.4637-2.817-7.865-1.7272-11.526 0.62233-2.0909 1.2941-6.7244 1.4929-10.297 0.337-6.0565 0.21203-6.495-1.8512-6.495-4.9684 0-9.8122 9.2271-9.8122 18.692 0 5.7274 0.15612 6.0754 3.8781 8.6438 4.6646 3.2189 9.1428 3.7675 8.0196 0.98247zm-135.93-2.38c4.2274-1.1658 11.176-2.7766 15.442-3.5796 8.6261-1.6239 15.18-3.7543 18.8-6.1112 1.3198-0.85926 5.4246-1.8849 9.1217-2.2793 4.6498-0.49596 7.7368-1.4781 10.014-3.186 1.8106-1.358 3.9695-2.469 4.7976-2.469 2.3794 0 6.2763-3.676 5.6462-5.3261-0.95724-2.5067-10.942-4.9279-25.886-6.2771-16.34-1.479-26.447-0.5-38.932 3.767-8.42 2.881-21.561 9.861-24.316 12.921-2.5235 2.8021-1.7433 5.9036 1.396 5.5492 3.456-0.39022 8.3299 2.0134 8.3299 4.1079 0 1.9961 3.7533 5.0012 6.2464 5.0012 0.90728 0 5.1084-0.9538 9.3358-2.1195zm328.63-18.186c3.9498-10.372 2.9033-12.902-6.6586-16.099-8.0053-2.677-13.998-2.4405-21.359 0.84294-4.2505 1.8959-4.9122 2.6023-4.9122 5.2438 0 2.275 0.93404 3.7686 3.6663 5.8627 3.465 2.6558 3.8037 2.7196 6.1685 1.1625 1.3762-0.90614 4.4012-1.6475 6.7222-1.6475 5.1902 0 9.2968 3.5749 9.2968 8.0931 0 6.6421 3.9682 4.7028 7.0761-3.4581zm-297.16-21.181c13.624-1.7408 14.995-2.0277 14.995-3.1368 0-0.51634-1.5124-1.4251-3.361-2.0195-9.846-3.1659-21.227-2.2817-31.507 2.4478-10.653 4.9007-4.1829 5.7824 19.873 2.7086z"/>
 <path id="path3542" fill="#33a1c6" d="m215.63 450.2c0-1.1691 1.1204-2.983 2.4898-4.0309 1.9924-1.5246 2.309-2.3725 1.5846-4.2435-0.5898-1.5233-1.771-2.3382-3.3893-2.3382-3.1007 0-12.757 3.1192-20.622 6.6614-7.8857 3.5515-13.815 3.617-15.378 0.16983-1.6611-3.6635-10.005-6.1989-17.57-5.3388-4.527 0.51468-6.1935 0.30508-7.4266-0.93404-1.9609-1.9705-3.8059-2.0674-3.8059-0.19988 0 1.9136-3.0562 4.4242-6.3366 5.2053-1.4944 0.35583-3.4829 1.8216-4.419 3.2572-2.3825 3.6539-5.3158 3.2825-12.43-1.5735-3.367-2.2983-7.3226-4.4661-8.7903-4.8172-1.4677-0.35115-3.1339-0.9758-3.7026-1.3881-2.0157-1.4612-7.4598-1.9634-8.6222-0.79533-1.7688 1.7774-2.716 0.0788-1.4782-2.651 1.0346-2.2819 0.95322-11.432-0.20558-23.102-1.0568-10.643-12.211-25.445-22.006-29.205-3.4934-1.3407-6.5062-1.576-13.992-1.0927-11.304 0.72967-17.778 2.9499-27.366 9.3843-3.8413 2.578-7.1501 4.5206-7.3529 4.3168-0.20278-0.20377 0.39336-2.676 1.3247-5.4938 2.4849-7.5177 11.502-16.624 21.269-21.478 20.542-10.21 29.712-11.026 41.366-3.6778 5.5043 3.4703 16.672 9.2888 21.74 11.327 1.9782 0.79558 5.4583 2.2718 7.7334 3.2804 2.2751 1.0087 9.3683 3.9582 15.763 6.5546 6.3943 2.5964 13.142 5.4018 14.995 6.2344 22.556 10.134 48.841 15.074 55.451 10.422 1.3121-0.92348 1.9973-2.0405 1.5228-2.4822-0.47452-0.44174-9.2124-3.4931-19.418-6.7807-22.917-7.3828-39.173-13.786-57.972-22.834-25.64-12.341-38.508-15.676-56.878-14.744-26.813 1.3615-47.184 13.697-57.796 34.999-2.811 5.6426-4.7703 10.998-4.7703 13.039 0 4.5969 1.6644 8.7952 3.4868 8.7952 1.4009 0 5.9429-4.7024 8.6279-8.9326 1.1598-1.8273 1.3613-1.8471 2.6278-0.25871 1.1652 1.4612 5.6615 2.4084 9.5995 2.0222 0.5905-0.0579 4.5461-4.0769 8.7903-8.9311 7.8321-8.9579 10.063-10.185 14.194-7.8072 0.98765 0.56834 4.4364 1.9916 7.6638 3.1628 6.5629 2.3816 12.927 7.9486 15.63 13.672 4.6693 9.8878-0.27429 24.858-10.256 31.057-4.9826 3.0944-13.998 5.0327-23.61 5.076-4.5273 0.0204-14.091 0.75654-21.252 1.636-7.1613 0.87941-17.645 1.464-23.298 1.299-11.696-0.34134-12.841-1.2868-7.9169-6.5354 2.659-2.834 2.9052-3.7328 2.7034-9.8724-0.1191-4.2-1.246-9.67-2.9672-14.48-2.3248-6.49-2.695-8.97-2.3284-15.59 0.2398-4.32 1.2496-10.05 2.2442-12.74 1.8024-4.86 1.7994-4.89-0.9287-10.88l-2.7368-6.0072 4.185-3.8832c4.7451-4.4028 4.8316-4.8338 2.4555-12.227-1.2529-3.8982-2.5354-5.8001-4.6537-6.9008-1.6083-0.83574-2.9242-2.2146-2.9242-3.064 0-0.84948 3.3739-5.0089 7.4976-9.2432 4.1237-4.2342 10.967-11.281 15.207-15.659 4.2399-4.378 9.1263-8.6929 10.859-9.5886 1.7323-0.89572 6.4072-3.8327 10.389-6.5265 7.7446-5.24 18.092-10.011 24.82-11.443 2.2751-0.48452 6.2308-1.7938 8.7903-2.9094s7.5114-2.3333 11.004-2.7058c5.9677-0.63652 17.209-3.9568 19.503-5.7609 0.56878-0.44716 2.4303-1.0616 4.1366-1.3655 1.7064-0.30383 5.1966-1.2759 7.7561-2.1601 2.5595-0.88423 6.7478-2.2094 9.3074-2.9448 4.2573-1.2232 14.191-8.1528 17.322-12.084 2.3689-2.9739 1.416-5.1355-3.4747-7.8823-6.6835-3.7537-10.634-4.6304-24.003-5.3265-9.4439-0.49172-12.717-0.26852-16.993 1.1587-8.3697 2.7936-23.721 12.38-30.741 19.198-3.5353 3.4333-8.5932 7.3639-11.24 8.7347-2.6466 1.3708-7.7706 5.5351-11.387 9.2538-3.616 3.7188-8.2697 7.5504-10.342 8.5147-2.0718 0.96427-4.7643 2.665-5.9833 3.7795-4.6049 4.2098-32.428 12.576-32.428 9.751 0-0.3496 1.391-3.1123 3.091-6.1394 1.7001-3.027 3.9836-8.0471 5.0746-11.156 1.091-3.1086 2.7045-7.5225 3.5856-9.8087 2.7855-7.2278 2.196-10.728-2.9718-17.646-5.1901-6.9473-5.5666-9.3053-2.5518-15.982 1.1251-2.4916 2.0456-5.108 2.0456-5.8143 0-0.70633 0.91438-2.1158 2.032-3.1321 1.7578-1.5986 5.8994-12.77 5.0098-13.514-0.17586-0.14692-1.3727-0.81775-2.6597-1.4907-1.9375-1.0131-2.1505-1.5794-1.2381-3.2925 0.97676-1.834 0.57982-2.301-3.4955-4.1125-2.5286-1.124-4.8763-2.774-5.2172-3.6668-0.34809-0.91153 1.1544-4.8987 3.4267-9.0936 2.2256-4.1087 4.5927-9.5547 5.2602-12.102 1.5145-5.7803 7.152-12.584 13.03-15.726 2.8668-1.5323 3.0788-2.0436 2.9209-7.045-0.09365-2.966-0.40238-5.626-0.68605-5.911-0.28367-0.28505-4.1869-0.96191-8.6739-1.5041-13.968-1.6879-15.859-3.1292-9.3828-7.1513 1.886-1.1713 4.2507-3.0419 5.2549-4.157 1.7517-1.945 1.734-2.1197-0.4343-4.2986-2.8195-2.8332-2.1719-7.4776 1.5932-11.427 1.4119-1.4808 2.567-3.0176 2.567-3.415 0-0.39739-2.7922-0.72254-6.2049-0.72254s-6.2049-0.11708-6.2049-0.26018c0-1.7708 3.1923-14.531 4.2247-16.887 0.75147-1.7147 3.5986-5.5447 6.327-8.5112s4.9607-6.3598 4.9607-7.5407c0-2.0131-0.26792-1.9521-4.2918 0.97699-7.7717 5.61-14.738 3.69-16.055-4.468-0.872-5.399 2.787-7.54 12.65-7.402l7.4017 0.10383 0.65538-7.7909c0.36046-4.285 1.2372-8.4996 1.9484-9.3658 1.0503-1.2793 1.0019-1.6729-0.25821-2.097-0.853-0.287-2.785-1.847-4.293-3.468-2.512-2.7-3.355-2.946-10.083-2.946h-7.3412v-4.943c0-2.7187-0.48179-6.5767-1.0706-8.5734-1.7411-5.904-1.3752-10.551 1.3095-16.628 2.5622-5.801 7.2608-10.405 12.171-11.925 1.422-0.44042 5.5641-2.3783 9.2047-4.3063 3.6406-1.9281 7.9178-3.5056 9.5049-3.5056 4.2197 0 4.6626-1.8258 1.3108-5.4032l-2.958-3.1565 12.41 0.718c7.245 0.4193 15.208 0.2763 19.132-0.3434 20.514-3.2395 34.237-4.4627 36.224-3.2288 0.772 0.47971-0.103 1.4588-2.42 2.7052-5.428 2.9206-20.36 13.184-20.36 13.994 0 0.38842 0.8144 0.99891 1.8098 1.3567 6.7456 2.4244 7.8067 2.5156 12.48 1.0722 9.9332-3.0677 18.089-4.5979 24.506-4.5979 3.635 0 7.7369-0.51634 9.1152-1.1474 1.986-0.90929 3.0415-0.79485 5.0862 0.55141 2.1886 1.441 3.3459 1.5193 7.6256 0.51586 6.122-1.4354 10.335-3.3707 14.361-6.5966 2.6221-2.101 2.8449-2.6582 1.6442-4.112-1.2342-1.4944-0.9898-1.6817 2.1954-1.6817 1.9714 0 6.2895 0.93528 9.5959 2.0784 7.9464 2.7473 12.714 2.6215 18.778-0.49553 2.7542-1.4157 6.9626-2.8747 9.352-3.2422 3.97-0.61074 4.3976-0.4551 4.9625 1.8066 0.33998 1.3612-0.10248 4.2081-0.98331 6.3265-2.034 4.8918-2.0431 10.438-0.0237 14.362 2.0736 4.0295 2.805 3.8824 2.0049-0.40321-1.2448-6.668 4.9861-16.353 11.781-18.311 2.859-0.82394 3.6155-0.5967 5.7636 1.7313 1.9916 2.1583 3.0898 2.5557 5.644 2.0424 3.7366-0.75098 13.898 0.96382 17.835 3.0098 1.5207 0.79023 3.8324 3.2018 5.137 5.359 2.8758 4.7551 3.9957 5.6068 6.3883 4.8584 1.9096-0.5973 5.8178 3.0955 5.8831 5.5588 0.0189 0.71445 0.7713 1.299 1.672 1.299 0.90065 0 5.3923 2.3219 9.9814 5.1599 4.5891 2.8379 8.6949 4.9418 9.124 4.6754 0.42909-0.26648 0.51869-1.4893 0.19911-2.7173-0.37874-1.4554 0.0644-2.707 1.2729-3.595 1.4535-1.068 1.731-2.2835 1.2847-5.6273-0.39941-2.9924-0.16396-4.4213 0.78909-4.7888 0.77592-0.2992 1.3665-2.1642 1.3773-4.3495 0.0212-4.289-3.6018-8.9185-10.412-13.305-9.0368-5.8202-3.4076-5.8104 24.044 0.041911 16.952 3.6139 19.309 3.8648 37.229 3.9631 25.862 0.14186 43.465-1.0469 52.225-3.5268 10.588-2.9975 15.034-3.6556 30.249-4.477 14.826-0.80039 15.482-0.55447 11.634 4.3611-2.6194 3.3462-2.6231 7.1504-0.0114 11.455 1.6188 2.6679 2.7585 3.3901 5.4254 3.4379 4.3938 0.07872 14.108 4.9366 16.504 8.2531 3.0067 4.1624 5.2695 17.07 4.3724 24.941-0.42347 3.7151-0.66008 15.727-0.52581 26.692l0.24413 19.938-3.2181 1.6723c-2.9519 1.5339-3.1656 1.9908-2.5833 5.5227 0.34913 2.1178 1.9951 8.1173 3.6577 13.332 3.2505 10.196 4.0697 21.097 1.7302 23.024-0.71098 0.58566-3.2705 1.5962-5.6878 2.2457-2.4173 0.64948-4.3952 1.549-4.3952 1.9988 0 0.4499 1.2087 1.9517 2.686 3.3373 2.9239 2.7424 6.6213 9.3133 6.6213 11.767 0 1.9898-7.52 3.1668-15.363 2.4045-6.0532-0.5883-19.613-4.7904-26.124-8.0955-6.3888-3.2432-10.221-7.0858-10.221-10.249 0-8.7748-4.5434-14.806-17.74-23.55-10.859-7.195-32.384-18.081-35.752-18.081-1.0667 0-2.3816-0.40755-2.922-0.90567-1.8518-1.7071-15.29-5.3295-19.771-5.3295-2.9662 0-5.1205 0.64415-6.377 1.9068-2.0606 2.0706-11.119 4.4772-16.381 4.352-1.8058-0.043-3.5773 0.40007-3.9368 0.98455-0.42305 0.68785-1.7623 0.48655-3.797-0.57076-1.7288-0.8984-5.309-2.027-7.956-2.5081-2.6469-0.48108-6.984-1.714-9.6379-2.7397-4.353-1.6825-5.8713-1.7436-15.512-0.624-17.375 2.0176-27.858 4.958-32.784 9.195-4.0545 3.4874-6.803 9.4101-6.5641 14.145 0.13606 2.6974-1.9705 3.4559-3.5541 1.2796-1.5715-2.1597-1.8728-7.3343-0.47742-8.2009 0.7895-0.49033 2.426-6.2378 2.6838-9.4256 0.0462-0.57156 1.5735-4.02 3.394-7.6633 4.4364-8.8783 2.923-10.832-4.8044-6.2027-10.011 5.9973-14.951 14.685-14.398 25.317 0.31298 6.0152 0.34475 6.0695 5.3652 9.1644 2.7777 1.7123 6.3949 3.1133 8.0382 3.1133 2.9944 0 3.3192 0.49006 4.1932 6.325 0.16957 1.1322 2.27 3.0424 4.8566 4.4166 6.8726 3.6514 7.4645 3.375 6.7036-3.1309-0.39956-3.4162-0.19739-6.4011 0.52546-7.7584 0.64617-1.2133 4.5409-4.2095 8.655-6.6582l7.4802-4.4522h25.854l9.1817 4.4328c15.61 7.536 29.131 23.037 34.644 39.716 3.0112 9.1094 4.7791 10.408 4.7791 3.5112 0-2.6336 0.70125-5.0814 1.8098-6.317 2.2935-2.5566 2.2663-2.8672-0.7985-9.128-1.879-3.8383-2.546-6.9041-2.553-11.733l-0.009-6.5369 4.2376 3.9389c2.3307 2.1664 5.8392 6.1309 7.7967 8.81 3.9345 5.3848 14.854 26.406 14.854 28.596 0 0.76317 2.1035 5.5964 4.6745 10.741 7.1765 14.359 14.783 20.742 24.718 20.742 8.0222 0 8.5022-2.8693 3.1386-18.761-2.0152-5.9708-4.3499-14.081-5.1883-18.022-0.88285-4.1505-3.4753-10.793-6.1605-15.784-2.5499-4.7395-4.6362-8.8577-4.6362-9.1514 0-1.5497 10.389 2.9809 18.33 7.9936 19.239 12.145 28.26 16.046 42.604 18.426 8.5522 1.4189 15.845 5.8639 21.705 13.229 6.2415 7.8444 6.7655 12.909 2.2761 22.002-3.5693 7.2291-3.8486 10.052-1.6004 16.175 2.1076 5.7404 4.5041 17.196 3.9184 18.73-0.26583 0.69615-2.3565 2.0051-4.646 2.9088-3.6235 1.4303-4.0658 1.9498-3.4147 4.0111 0.41135 1.3024 1.6675 3.6178 2.7914 5.1454 3.1636 4.2999 3.7106 9.781 3.8218 38.299 0.0569 14.568 0.37045 28.166 0.69691 30.218 0.43716 2.7471 0.11784 4.2082-1.2117 5.5442-2.368 2.3796-7.9744 1.6828-25.807-3.2073-7.3942-2.0276-16.236-4.3589-19.649-5.1805-24.279-5.8457-32.493-9.7396-68.914-32.669-20.521-12.92-33.785-17.916-37.054-13.959-1.458 1.7653-4.1694 2.1626-4.1694 0.61089 0-0.54316 0.81439-1.4481 1.8098-2.0109 1.627-0.91999 1.5486-1.1214-0.77561-1.9935-3.1454-1.1803-5.4846-0.44641-4.7456 1.4889 0.83716 2.1922-2.1627 1.6946-4.4124-0.73193-2.9311-3.1615-3.8593-0.58016-1.1607 3.2281 1.2221 1.7246 2.764 3.069 3.4264 2.9874 2.8807-0.35473 3.7898 0.24895 3.7898 2.5167 0 1.598 2.1055 4.451 6.2049 8.4079 6.4208 6.1975 7.1035 7.3413 4.9122 8.2298-0.71098 0.28828-0.2817 0.56107 0.95396 0.60619 1.5743 0.0575 2.5917 1.0928 3.3996 3.4594 1.2268 3.5935 7.3704 8.5544 12.058 9.7367 1.5137 0.38177 4.4319 2.3865 6.4849 4.455 9.6548 9.7277 23.277 14.877 38.708 14.632 8.7234-0.13854 10.206 0.14952 18.284 3.5515 4.8347 2.0362 9.6435 3.7101 10.686 3.7197 1.0428 0.009 5.3685 1.4147 9.6126 3.1224 4.3395 1.7461 11.748 3.6442 16.927 4.3372 8.2974 1.1101 9.6223 1.0458 13.361-0.64821 3.4865-1.5798 4.6356-1.6784 7.1868-0.6165 5.4727 2.2779 7.2081 5.2358 9.4255 16.065 2.9636 14.474 2.8063 20.018-0.67138 23.666-2.4366 2.5556-2.6179 3.209-1.5464 5.5721 0.76004 1.6763 1.187 8.2124 1.1422 17.484-0.0394 8.144 0.0508 15.249 0.20044 15.788 0.14965 0.53952-0.0668 3.104-0.481 5.6988-0.5216 3.2676-0.27086 6.0913 0.81573 9.1861 1.0997 3.132 1.2639 5.0408 0.54905 6.383-1.6241 3.0494-9.813 9.3265-13.585 10.414-4.5418 1.3089-13.938 1.2681-18.468-0.0802-2.5409-0.75626-5.4974-0.72757-9.9657 0.0967-7.6362 1.4087-16.721-0.0916-19.545-3.2278-1.0049-1.1159-2.5074-2.0289-3.3387-2.0289-1.0697 0-1.3614-0.78888-0.99806-2.699 0.42106-2.2134-0.5341-3.7665-5.3087-8.6318-7.3466-7.4862-27.368-20.063-37.436-23.516-10.606-3.6378-25.887-5.0278-46.859-4.2624-16.471 0.60121-18.078 0.84846-28.439 4.3765-12.634 4.3019-19.06 7.7344-21.507 11.488-2.1336 3.2722-0.74194 4.4996 5.1291 4.5235 2.5108 0.0104 4.1236 0.57387 4.5058 1.5747 0.79747 2.0883 4.3588 1.9961 24.635-0.63772 16.258-2.1118 17.163-2.1279 23.471-0.41731 10.924 2.9624 15.671 3.8501 20.005 3.7417 5.227-0.13074 13.974 1.5823 20.777 4.0689 3.5444 1.2957 6.6914 1.732 9.6327 1.3356 3.3888-0.45675 4.9983-0.1208 7.1773 1.498 1.5449 1.1478 4.7126 3.0628 7.0395 4.2556 2.3268 1.1928 4.4774 3.1171 4.779 4.2762 0.46871 1.8011 0.26256 1.9536-1.4184 1.0496-1.358-0.73033-2.6283-0.702-4.1039 0.0916-6.2398 3.3557-35.044 4.8446-43.883 2.2682-2.2751-0.66314-7.6269-1.9437-11.893-2.8458-4.2659-0.90202-9.3849-2.2596-11.376-3.0169-1.9907-0.75725-6.8771-2.3418-10.859-3.5213-20.563-6.0916-30.384-5.8151-45.496 1.281-5.6014 2.6303-11.671 5.9216-13.487 7.314-1.965 1.5061-5.4542 2.8183-8.6138 3.2395-4.8903 0.6519-5.3108 0.53966-5.3108-1.4176zm178.62-68.093c9.0398-1.8041 14.683-4.7395 16.484-8.5746 1.3204-2.8115 1.0259-3.2835-4.3195-6.9228-4.904-3.3388-14.274-6.7391-21.021-7.6286-9.5076-1.2533-28.226 2.7255-42.27 8.9848-11.124 4.9578-19.605 9.2869-22.629 11.55l-3.2025 2.3969 10.859 0.21185c5.9726 0.11651 11.309 0.66344 11.858 1.2154 1.6908 1.6991 44.416 0.72811 54.241-1.2327zm-128.17-2.5328c2.3269-1.5718 6.8301-6.2205 10.007-10.331 3.177-4.11 6.7065-7.7694 7.8435-8.1321 2.4611-0.78493 9.2545-7.5938 9.2545-9.2756 0-0.64882 0.94306-3.0322 2.0957-5.2964s2.1754-5.0537 2.2728-6.1989c0.21543-2.5327-3.8151-12.736-7.7134-19.527-1.573-2.74-2.86-5.4023-2.86-5.9162 0-1.9281-12.02-13.883-18.043-17.946-3.4427-2.3222-9.5171-7.1188-13.499-10.659-7.9426-7.0625-10.991-8.8677-18.354-10.87-21.381-5.815-55.588 17.882-55.588 38.508 0 4.6611 0.1958 5.0148 3.361 6.071 1.8486 0.61689 5.4552 2.5217 8.0147 4.2329 8.1424 5.4438 15.336 3.4482 12.466-3.4581-2.6926-6.4785-2.5511-10.73 0.56289-16.915 2.6316-5.2266 3.5434-6.0667 9.5614-8.8086 3.6588-1.6671 8.3679-3.031 10.465-3.031 4.1922 0 15.729 3.6547 22.51 7.1309 2.3838 1.222 4.8914 2.2219 5.5725 2.2219 2.9697 0 12.616 8.908 14.598 13.481 3.2386 7.4708 6.2239 23.596 5.6808 30.685-0.5136 6.7037-5.0097 18.562-10.048 26.5-3.241 5.1066-4.9612 10.392-3.3821 10.392 0.54485 0 2.8945-1.286 5.2214-2.8578zm156.37-5.3446c0-1.3401-2.8274-2.2304-4.7404-1.4928-1.3188 0.50853-1.3692 0.80281-0.25854 1.5103 1.8265 1.1634 4.9989 1.1523 4.9989-0.0176zm-247.07-7.4342c2.244-1.2068 27.893-1.6537 31.968-0.55701 2.0687 0.55672 3.3748-0.0533 6.5355-3.0525 3.2028-3.0391 3.7169-4.0307 2.7173-5.2411-1.8246-2.2092-6.3885-1.8203-12.972 1.1052-3.2153 1.4289-6.6914 2.598-7.7246 2.598-2.4113 0-3.6032-1.9229-2.1174-3.416 1.9927-2.0024 1.2822-3.4025-3.2443-6.3924-3.9544-2.612-4.7062-2.776-7.4976-1.6353-1.7064 0.69733-5.5967 1.7014-8.6453 2.2313-8.8468 1.5377-14.142 5.0424-13.407 8.8745 0.39237 2.0474 7.5612 6.5293 10.486 6.5559 1.0328 0.009 2.788-0.47242 3.9005-1.0707zm9.6797-20.448c0.43249-1.1325-0.002-2.2981-1.182-3.1697-1.588-1.1731-1.9176-1.1294-2.2121 0.29309-0.8058 3.8929 2.074 6.3336 3.3941 2.8766zm-12.825-16.914c0.40468-1.4289 1.3014-4.492 1.9928-6.8069 1.0233-3.4264 0.95357-6.2614-0.3751-15.249-1.143-7.7312-1.3572-12.518-0.71482-15.974 1.1054-5.9459 0.60531-7.6381-2.0511-6.94-2.5993 0.68306-2.5386-0.82845 0.17247-4.2918 1.755-2.2421 2.461-2.5379 3.6634-1.5351 1.1281 0.94081 1.7798 0.9503 2.6865 0.0391 0.90678-0.91116 0.64529-1.203-1.078-1.203-1.2513 0-2.3333-0.46764-2.4044-1.0392s-0.18744-1.5068-0.25854-2.0784c-0.14224-1.1435-1.3248-1.2927-3.8533-0.48628-0.91064 0.29044-4.6228 6.2472-8.2492 13.237l-6.5935 12.709-0.0241 10.033c-0.0232 9.6764 0.0896 10.175 3.1744 14.029 3.7639 4.703 9.5114 8.8682 11.659 8.4493 0.83468-0.16284 1.8487-1.4652 2.2534-2.894zm231.91-22.879c1.4575-1.152 3.2005-3.841 3.8733-5.9754 0.67282-2.1344 2.1852-5.8685 3.3609-8.2979 1.9413-4.0114 2.0309-5.0614 0.97569-11.431-0.63905-3.8577-1.4858-8.1117-1.8817-9.4532-0.65968-2.2354-0.54594-2.3301 1.3616-1.133 1.1448 0.71839 3.556 3.5697 5.3583 6.3362s3.6336 5.03 4.0695 5.03c1.5538 0 7.9152-5.3052 9.0758-7.5689 5.2323-10.205 0.36158-19.197-18.706-34.533-3.394-2.7298-8.9784-6.298-12.41-7.9293-5.428-2.5804-7.4542-2.966-15.588-2.9668-20.27-0.002-34.805 7.7163-41.757 22.173-4.6378 9.6438-3.6728 23.641 1.7772 25.776 1.5354 0.60153 4.2646 1.8021 6.0648 2.6678 1.8002 0.86579 3.7982 1.3983 4.44 1.1833 0.64183-0.21499 2.9043-3.6165 5.0278-7.5588 4.7064-8.7378 8.0963-11.522 13.964-11.468 7.9639 0.0728 17.366 6.599 19.13 13.278 1.1169 4.2296-1.0116 13.915-4.6665 21.233-2.2966 4.5984-2.5384 5.86-1.5437 8.0538 0.74993 1.654 2.0349 2.607 3.5285 2.6171 1.292 0.008 3.0471 0.46923 3.9002 1.0233 2.5902 1.6821 7.8394 1.1616 10.644-1.0554zm-227.82-24.94c0-0.57156-0.20521-1.0392-0.45604-1.0392-0.25082 0-0.74366 0.46764-1.0952 1.0392-0.35153 0.57155-0.14631 1.0392 0.45604 1.0392 0.60236 0 1.0952-0.46764 1.0952-1.0392zm131.15-36.909c0.87753-0.79645-2.6248-4.5499-7.7409-8.2961-3.1224-2.2862-6.6821-5.0921-7.9106-6.2352-8.0443-7.4853-33.039-12.188-46.575-8.7635-8.0104 2.0269-8.9528 6.1078-1.4201 6.1496 2.0849 0.0115 3.1326 0.71138 3.8319 2.5596 1.3152 3.4762 4.0744 5.0228 15.557 8.7197 12.707 4.0913 18.378 5.389 27.898 6.3838 6.7012 0.70025 15.318 0.42744 16.36-0.51795zm-122.98-18.83c2.5676-0.51602 3.1308-1.0597 2.6559-2.5634-0.70465-2.231-0.21568-2.3725 13.991-4.0502 7.8664-0.92891 10.759-1.7637 14.523-4.1909 6.036-3.8922 22.896-11.809 28.913-13.576 4.1307-1.2131 7.4521-3.0752 20.469-11.476 3.297-2.1277 7.9129-9.3866 7.2465-11.396-0.18011-0.54296-1.9524 0.40824-3.9385 2.1138s-4.5087 3.12-5.6059 3.1432-3.5401 0.6037-5.4286 1.2899c-2.508 0.91135-3.742 0.93794-4.5772 0.0986-0.83521-0.83928-2.1597-0.72393-4.9129 0.42788-2.0732 0.86732-4.0021 1.9004-4.2865 2.2957-1.0063 1.3989-9.9201 5.5952-17.064 8.033-6.7011 2.2869-13.596 3.2323-39.298 5.3888-13.435 1.1273-26.371-1.57-26.371-5.4988 0-1.196-22.272-9.6283-41.366-15.661-16.708-5.279-45.04-4.5029-56.791 1.5556-2.0391 1.0514-5.609 3.9442-7.9332 6.4286s-6.8468 6.6214-10.05 9.1934c-8.6911 6.9781-10.369 8.561-12.353 11.654-2.4267 3.783-2.3589 3.9336 1.7734 3.9336 2.5641 0 3.9087 0.61124 4.7278 2.1491 1.0881 2.0431 1.2733 2.0644 3.7533 0.43151 1.5801-1.0404 3.5838-1.4717 5.0819-1.0939 1.3602 0.34306 5.1557-0.27572 8.4344-1.3751s9.6841-2.3176 14.234-2.7072c4.5503-0.38964 11.298-1.3943 14.995-2.2327 9.2556-2.0987 20.44-2.4947 39.298-1.3912 20.205 1.1823 30.108 2.9197 33.274 5.8381 1.3226 1.2192 4.0335 3.0482 6.0242 4.0645l3.6195 1.8479-2.8996 0.97692c-3.9012 1.3144-3.2385 4.0623 1.3609 5.644 3.9723 1.366 13.415 1.7247 18.5 0.70274zm147.99-39.41c0-0.89107-0.46537-1.3311-1.0342-0.97786-0.56879 0.35324-1.0342 1.0823-1.0342 1.6201 0 0.53782 0.46537 0.97786 1.0342 0.97786 0.56878 0 1.0342-0.72906 1.0342-1.6201zm-279.3-54.93c0.07116 1.1033 10.866 0.20152 14.551-1.2155 3.2625-1.2548 13.382-2.5342 24.758-3.1303 12.279-0.6434 17.2-1.7328 16.078-3.5586-1.813-2.9478 23.171-9.3302 36.523-9.3302 5.753 0 7.6343-0.4588 10.831-2.6415 3.2928-2.2484 3.7782-3.0603 3.2621-5.4558-2.3953-11.117-12.228-14.331-46.886-15.326-8.763-0.25147-16.126-0.6513-16.362-0.88852-0.48329-0.48565 2.0126-1.015 13.084-2.775 5.1205-0.81398 12.784-0.97299 23.01-0.47746 8.4329 0.40864 15.333 0.47661 15.333 0.15104 0-1.1182-6.4056-3.9178-16.381-7.1595-8.4846-2.7572-11.548-3.2442-20.331-3.2327-14.721 0.01933-24.36 3.4728-41.883 15.006-2.5595 1.6846-6.0205 3.8794-7.691 4.8775-4.2528 2.5408-8.0369 6.3389-7.3799 7.4072 0.73502 1.1951-8.72 10.073-16.471 15.465-3.4127 2.3743-7.3683 5.261-8.7903 6.4149l-2.5854 2.098 2.8645 0.0231c1.5755 0.0127 5.7199-1.1428 9.2099-2.5678 4.7859-1.9542 6.6871-2.306 7.7356-1.4315 1.8206 1.5183 1.7632 3.4569-0.14964 5.0522-2.129 1.7755-0.99007 3.1271 2.635 3.1271 1.7049 0 3.0734 0.57081 3.1141 1.299 0.03998 0.71445 0.47264 0.36372 0.96147-0.7794s0.92149-1.5712 0.96147-0.9514zm353.93-18.95c1.0402-0.94592 1.8912-2.3324 1.8912-3.081 0-0.74865 0.96752-1.8815 2.15-2.5174 1.1825-0.63596 2.6242-2.523 3.2036-4.1934 0.65052-1.8752 1.7828-3.0371 2.9597-3.0371 7.0454 0-0.90958-8.0365-11.268-11.383-9.3903-3.0341-19.213-2.6268-26.708 1.1075-4.3871 2.1858-5.0162 2.9158-5.2737 6.1191-0.24974 3.1073 0.25557 4.0725 3.4686 6.6256l3.7609 2.9884 3.9113-2.209c4.8447-2.7362 6.8514-2.7618 11.127-0.14198 2.993 1.8338 3.361 2.573 3.361 6.7509 0 4.3919 0.17653 4.6917 2.7625 4.6917 1.5194 0 3.6135-0.77393 4.6537-1.7199zm-54.604-54.873c2.1457 0.4045 3.7916 0.21484 4.223-0.48664 1.1013-1.7906 2.5005-0.31361 1.8976 2.0031-0.4657 1.7895-0.0308 2.0774 3.1385 2.0774 2.0235 0 3.9195-0.39085 4.2133-0.86856 0.2938-0.4777 3.0683-0.65738 6.1655-0.39929 4.9198 0.40998 5.7776 0.19448 6.7896-1.7056 1.2561-2.3584 0.0895-4.0864-5.1164-7.5792-3.9608-2.6574-1.5016-3.7952 6.2274-2.8812 3.6971 0.43718 8.0018 1.1212 9.5659 1.5199 1.8133 0.4623 2.8439 0.31173 2.8439-0.41548 0-0.6273-1.2798-1.4316-2.8439-1.7874-1.5642-0.35577-7.096-1.9827-12.293-3.6154-14.923-4.6882-30.702-6.5591-34.502-4.0909-1.2638 0.82073-1.1358 1.0103 0.69104 1.0233 2.7854 0.01976 5.5139 1.0286 5.5139 2.0387 0 0.41866-1.1634 1.2939-2.5854 1.9449-1.422 0.65105-2.5854 1.8952-2.5854 2.7648 0 2.0351-1.6678 2.0503-2.4423 0.02228-1.0914-2.8579-6.4479-1.8369-10.648 2.0296-2.1439 1.9736-3.5684 3.9196-3.1656 4.3244 1.0938 1.0992 15.434 1.0672 17.728-0.03947 1.6495-0.79585 1.8705-0.64859 1.2936 0.86198-0.38263 1.002-0.39049 3.0437-0.0175 4.5372 0.67331 2.6957 0.68445 2.6985 1.5354 0.38711 0.73379-1.9933 1.3631-2.233 4.3732-1.6655zm-2.7105-8.5256c0.71098-0.28829 1.8744-0.28829 2.5854 0 0.71098 0.28829 0.12926 0.52416-1.2927 0.52416s-2.0037-0.23587-1.2927-0.52416zm-39.04 73.339c0-2.5326 2.4166-2.1746 2.9197 0.43251 0.19792 1.0254-0.32965 1.7325-1.2927 1.7325-0.95931 0-1.627-0.88852-1.627-2.165zm-4.6537-5.1094c-0.35153-0.57156-0.17377-1.0392 0.39502-1.0392 0.56878 0 1.3218 0.46764 1.6733 1.0392 0.35153 0.57156 0.17376 1.0392-0.39502 1.0392s-1.3218-0.46763-1.6733-1.0392zm-7.3646-5.9499c-1.4898-1.6154-2.1209-2.9968-1.4687-3.2153 1.6844-0.56419 6.2479 2.732 6.2479 4.5127 0 2.3489-1.8893 1.836-4.7792-1.2974z"/>
 <path id="path3540" fill="#1b8cb4" d="m415.74 448.25c-9.2454-2.7601-10.034-2.8326-11.045-1.0157-0.52254 0.93828-1.8196 1.706-2.8824 1.706-3.8908 0-5.204-1.1996-5.204-4.7539 0-3.0047-0.77129-4.0775-5.524-7.6833-6.2879-4.7706-27.451-17.351-38.965-23.163-11.512-5.8105-21.642-8.0321-39.794-8.7268-20.819-0.79672-36.305 0.77846-48.408 4.9239-10.626 3.6397-26.992 11.728-30.253 14.951-1.1736 1.1601-5.1162 3.5121-8.7612 5.2268s-11.294 5.625-16.998 8.6896c-10.364 5.5684-17.13 8.4571-19.808 8.4571-0.933 0-1.4212-1.2412-1.4212-3.6132 0-4.3702-2.9335-6.6898-9.5265-7.533-2.439-0.31193-5.3653-1.0645-6.5029-1.6723-1.1376-0.60787-3.0881-0.98214-4.3344-0.83171-1.6511 0.19926-2.7372-0.64191-4.0018-3.0994-0.95464-1.8551-4.7222-6.4036-8.3724-10.108-4.3817-4.4466-6.2887-7.0848-5.6125-7.7643 1.562-1.5696-0.46187-4.5336-5.1078-7.4808-4.9845-3.1619-6.3222-3.219-8.1077-0.34618-1.1867 1.9095-1.1593 2.3664 0.1875 3.1238 0.86764 0.48793 1.9035 2.4042 2.302 4.2583 0.39845 1.8542 1.8309 5.3753 3.1833 7.8247 1.9161 3.4705 2.4588 6.0194 2.4588 11.548 0 6.3183-0.33947 7.5239-3.1025 11.018-1.7064 2.1576-3.1024 4.3263-3.1024 4.8193 0 0.49298-0.73834 0.89631-1.6407 0.89631-2.0536 0-14.906-12.283-14.906-14.245 0-2.8109-3.2346-7.6796-5.7374-8.6358-2.5432-0.97163-3.3896-3.485-1.557-4.6231 0.58798-0.36517 0.3656-2.3544-0.55695-4.982-3.4874-9.9326-7.115-15.853-14.423-23.54-6.6565-7.0013-8.6375-8.4224-15.183-10.892-4.1403-1.5621-8.3359-3.2781-9.3235-3.8133-4.0174-2.177-13.125-0.0369-17.853 4.1951-3.5018 3.1345-14.444 8.4345-14.857 7.196-0.71497-2.1469 9.6698-11.493 16.829-15.146 8.7378-4.4582 18.292-7.6104 23.066-7.6104 4.4589 0 17.254 4.3717 26.272 8.9764 3.7634 1.9216 7.1951 3.4939 7.626 3.4939 0.82838 0 12.662 5.2103 24.937 10.98 4.0409 1.8993 8.6946 3.7767 10.342 4.1721 1.647 0.3954 7.1828 2.7741 12.302 5.286 10.808 5.3035 29.418 10.024 45.732 11.601 9.2183 0.89089 11.004 0.79634 13.961-0.73908 5.1154-2.6563 9.0785-5.4567 9.0785-6.4151 0-0.4708-2.2105-1.1541-4.9122-1.5183-2.7017-0.3643-9.1005-1.7468-14.22-3.0722-27.552-7.1337-46.448-14.047-71.874-26.298-26.058-12.554-37.465-15.82-55.262-15.82-12.468 0-27.225 3.2838-37.485 8.3417-9.2071 4.5386-18.335 14.785-24.485 27.487-4.2026 8.6795-4.7976 10.745-4.7976 16.657 0 6.1922-0.97107 8.3342-2.5871 5.7066-0.42325-0.68818-1.355-0.65794-2.744 0.0891-1.7163 0.92302-2.5673 0.69285-4.6269-1.2515-2.366-2.2336-2.5054-2.9699-2.2293-11.78l0.29451-9.3975 2.9858-0.34258 2.9858-0.34258-0.61729-6.6427c-0.33951-3.6535-1.3543-8.0749-2.2552-9.8255-1.5406-2.9938-1.51-3.3632 0.51657-6.2231 1.1849-1.6722 3.532-4.0261 5.2158-5.2309 1.6837-1.2048 3.0613-3.0004 3.0613-3.9903 0-0.98989 0.55844-2.361 1.241-3.0468 0.96521-0.96992 0.72344-1.247-1.0879-1.247-1.6436 0-2.6386-0.8927-3.3814-3.0337-0.68897-1.986-2.3669-3.619-4.8584-4.7285-9.2289-4.1095-9.2084-3.4469-0.3633-11.704 26.491-24.729 31.528-28.365 46.617-33.652 7.492-2.6251 8.3507-2.4722 4.4326 0.7896-4.0845 3.4003-4.1878 5.2042-0.34641 6.052 4.1474 0.91537 17.078-5.3407 17.529-8.4807 0.21527-1.4988-0.37256-2.4404-1.8098-2.8988-3.0988-0.98831-2.6095-2.3788 1.2324-3.5027 1.8485-0.54073 9.1781-2.7072 16.288-4.8144 7.1098-2.1072 15.719-4.2016 19.132-4.6541 7.4195-0.98391 11.964-2.6497 17.767-6.513 2.3776-1.5828 4.7568-2.8778 5.2871-2.8778 2.0217 0 9.1312-6.6216 12.093-11.263 1.7003-2.6645 3.7951-5.3976 4.6552-6.0736 2.3384-1.8378 0.58828-3.0324-9.8703-6.7373-8.1889-2.9008-10.879-3.3322-23.474-3.7638-9.905-0.33943-15.716-0.0741-19.132 0.87345-6.2072 1.7217-20.208 9.3578-26.768 14.6-2.7644 2.2088-8.9818 6.6393-13.816 9.8456-4.8347 3.2063-11.35 8.2794-14.478 11.274-8.6594 8.288-35.746 24.5-40.935 24.5-2.177 0-1.7837-2.3564 1.1081-6.6384 1.4155-2.096 3.2458-5.1171 4.0674-6.7136 1.6587-3.2232 5.8298-8.4473 10.164-12.73 1.5642-1.5456 2.8439-3.2974 2.8439-3.893 0-0.59561 0.99192-1.7811 2.2043-2.6344 1.2599-0.88677 1.9196-2.1364 1.5398-2.9167-3.003-6.1706-10.027-12.892-14.079-13.472-3.4802-0.49813-5.5827-4.7738-3.7489-7.6239 0.7405-1.1509 1.6353-3.2734 1.9884-4.7166 1.0966-4.4822 15.701-16.75 25.539-21.453 15.38-7.3521 23.001-9.4187 52.759-14.306 14.856-2.4398 30.169-2.2237 43.934 0.61996 11.097 2.2926 12.732 2.9632 14.652 6.0094 4.5876 7.2809 15.224 11.386 29.669 11.452 9.3875 0.0427 21.965-2.6002 24.968-5.2468 1.1376-1.0025 5.0932-2.5961 8.7903-3.5413 3.6971-0.94518 8.3508-2.6931 10.342-3.8842 9.5641-5.7225 18.71-10.024 24.82-11.672 6.1853-1.6686 15.561-6.5033 21.598-11.137 3.2657-2.5066 4.5527-2.3921 3.6934 0.32858-0.61697 1.9534-0.37568 2.159 1.9986 1.7029 2.1417-0.4114 2.7003-0.1118 2.7003 1.4482 0 1.0818 0.75881 2.2595 1.6862 2.6171 3.6284 1.3991 13.573-6.5239 12.317-9.8131-0.30346-0.79469-0.0622-2.364 0.53598-3.4872 1.666-3.1282 0.30777-5.8855-2.9392-5.9669-1.5453-0.0387-3.8567-0.0944-5.1365-0.12372-2.727-0.0626-2.8077-0.38005-0.875-3.444 0.79852-1.2659 1.7833-4.406 2.1884-6.978 0.40511-2.572 1.1157-5.4036 1.5791-6.2924 1.9135-3.6701-2.3008-22.907-4.9874-22.766-1.4213 0.0748-6.5182 8.4231-7.1564 11.722-0.58356 3.0161-1.8892 4.8089-3.5322 4.8502-0.34772 0.008-0.39819-1.2142-0.11218-2.7177 0.38025-1.9988 0.14037-2.6064-0.89244-2.2605-0.77686 0.26022-1.7049 1.9097-2.0622 3.6656-1.664 8.176-16.686 22.633-33.3 32.048-13.954 7.9076-13.622 7.8264-35.201 8.5948-14.14 0.50347-21.028 0.35271-23.976-0.52479-18.028-5.3657-28.074-8.5318-42.406-13.365-20.386-6.875-28.385-8.22-43.946-7.3899-13.98 0.74578-21.809 2.6475-31.025 7.5363-8.2226 4.3618-21.141 13.828-25.337 18.567-4.1524 4.6893-21.129 11.608-24.299 9.9028-2.4353-1.3097-2.1706-2.0276 4.29-11.636 2.1887-3.2551 3.9795-6.5187 3.9795-7.2525 0-1.558 17.378-18.525 18.974-18.525 0.59349 0 2.268-1.1212 3.721-2.4916 2.8507-2.6884 10.167-6.8612 12.03-6.8612 1.5258 0 12.846-10.891 12.846-12.359 0-1.4342-2.7539-1.5192-3.6195-0.11168-0.35153 0.57156-1.7126 1.0392-3.0245 1.0392-1.312 0-7.6833 1.3999-14.159 3.111-15.078 3.9842-33.893 4.3606-32.675 0.65372 0.63928-1.9456 20.448-9.8061 27.623-10.961 3.6971-0.59527 13.298-3.6177 21.335-6.7166 14.798-5.7053 32.535-9.9722 41.597-10.006 2.6425-0.0104 8.7603-0.66076 13.595-1.4462 4.8347-0.78542 13.677-1.4929 19.649-1.5722 11.221-0.149 18.091-1.5273 16.941-3.3985-0.86819-1.4116 1.5401-2.8794 4.7767-2.9112 1.422-0.0139 4.9122-1.1756 7.7561-2.5814s5.725-2.5706 6.4024-2.5885c1.5939-0.0421 2.4784-1.5377 3.0447-5.1482 0.35929-2.2908-0.56157-4.1656-4.3282-8.8121-3.9483-4.8706-4.5621-6.1716-3.5117-7.4435 1.4794-1.7912 1.6564-1.581-3.6755-4.3651-14.14-7.3837-32.248-13.26-44.221-14.35-12.24-1.1146-25.095 2.2023-45.054 11.625-12.373 5.8413-23.628 13.226-26.258 17.229-6.1028 9.2865-23.066 21.47-30.51 21.912-3.5967 0.21378-3.8865 0.0271-3.6229-2.3336 0.42294-3.7878 4.6021-12.456 8.6091-17.857 1.9328-2.605 4.052-5.6225 4.7093-6.7056 1.169-1.9262 1.2288-1.9247 2.732 0.06983 1.2902 1.7119 1.7974 1.8219 3.1599 0.68556 0.8927-0.74449 1.9052-2.2467 2.2499-3.3382 0.34475-1.0915 1.4719-1.9845 2.5048-1.9845 2.5947 0 3.1361-2.9694 2.4145-13.244-0.554-7.336-1.092-9.347-3.217-11.884-3.075-3.673-14.456-9.064-20.904-9.903-2.56-0.333-5.4147-1.268-6.3448-2.077-1.7212-1.498-3.3712-6.774-3.0588-9.78 0.0949-0.913-0.5427-2.256-1.4169-2.985-2.2282-1.858-1.9074-7 0.7801-12.502 2.1345-4.37 3.1317-5.101 15.211-11.144 7.1098-3.5569 14.663-6.7718 16.785-7.1443 4.1823-0.73395 6.8325-2.8745 4.982-4.0238-0.5964-0.3704-1.0844-1.3473-1.0844-2.1709 0-1.1675 1.6521-1.4942 7.4976-1.4825 4.1237 0.00821 15.297-1.2346 24.829-2.7619 9.5322-1.5273 17.66-2.4469 18.061-2.0435 1.4528 1.4599-1.5875 4.2456-11.424 10.468-5.5131 3.4872-11.48 8.1152-13.259 10.285-3.0089 3.6681-3.1157 4.0645-1.526 5.6619 1.4465 1.4536 2.0407 1.5098 3.8645 0.36524 1.3839-0.86846 3.5735-1.1116 6.1187-0.67955 2.8722 0.48762 5.2652 0.0943 8.6909-1.4284 2.6-1.1557 9.19-2.6014 14.644-3.2125 5.4543-0.61116 10.91-1.6452 12.124-2.2979 1.2882-0.69281 8.6202-1.3082 17.617-1.4786l15.41-0.29186 8.0558-3.9618c5.8708-2.8873 8.2334-4.6323 8.7109-6.4339 0.61675-2.3275 0.9394-2.4216 5.5142-1.6079 9.7928 1.7417 15.884 1.1505 20.328-1.9727 2.4756-1.74 5.1319-2.7551 6.722-2.5689 2.8934 0.33896 2.9796 1.0154 1.1862 9.3141-2.1086 9.758 4.05 20.173 8.992 15.207 0.68254-0.68587 1.241-3.9744 1.241-7.3078 0-8.1001 2.2462-13.535 5.4078-13.084 1.8071 0.25771 2.4231 1.1134 2.6724 3.7123 0.37508 3.9091 2.1397 4.3159 7.3632 1.6973 4.4653-2.2385 10.357-2.0375 15.353 0.52373 4.8249 2.4735 10.58 10.809 10.548 15.276-0.029 3.9764-5.6142 20.502-7.097 20.999-0.63478 0.21263-1.1542 0.83668-1.1542 1.3868 0 0.55011 2.1611-0.65796 4.8024-2.6846s5.295-3.6848 5.8972-3.6848c0.60211 0 2.6177-1.4833 4.4791-3.2962 2.9745-2.8971 3.6908-3.156 5.9144-2.1379 1.8788 0.86024 3.3574 0.84459 5.7444-0.0608 2.7259-1.0339 4.2054-0.86202 9.7364 1.1313 7.2425 2.6101 9.963 2.2273 9.963-1.4018 0-1.334 0.46537-2.7145 1.0342-3.0677 0.56878-0.35324 1.0342-1.9994 1.0342-3.658 0-1.6631 0.91457-3.872 2.039-4.9247 1.783-1.6692 1.9297-2.6038 1.1684-7.4434-0.70012-4.4505-1.6058-6.2113-4.6244-8.9902-2.0646-1.9006-3.7538-4.2412-3.7538-5.2013 0-1.5036 0.7529-1.6468 5.4293-1.0329 2.9861 0.392 9.8503 1.8056 15.254 3.1412 12.685 3.1357 30.604 3.9817 57.395 2.71 20.434-0.96996 35.612-3.1606 41.071-5.9276 3.8309-1.9418 23.062-3.8742 25.393-2.5516 1.5607 0.88557 1.0281 1.759-4.1563 6.8167-6.3939 6.2376-6.7581 6.7974-4.4217 6.7974 0.83857 0 2.257 1.423 3.152 3.1622 1.9009 3.6939 3.2294 4.284 14.972 6.6507 10.023 2.0201 12.269 3.6247 15.44 11.034 3.3874 7.9125 3.8165 15.99 1.2009 22.603-1.8973 4.7975-2.0527 6.3602-1.1883 11.951 1.3648 8.8266 1.6925 26.537 0.5102 27.574-0.53243 0.46726-2.9314 1.4105-5.331 2.096-4.1846 1.1954-4.3373 1.3831-3.7361 4.5918 0.34474 1.84 1.2005 4.0468 1.9017 4.9042 0.70121 0.85734 3.1968 5.5502 5.5459 10.428 3.5867 7.4487 4.271 9.8945 4.271 15.267 0 3.5184-0.48191 6.6964-1.0709 7.0622-0.58899 0.36578-3.9629 1.0855-7.4976 1.5994-6.8381 0.99414-16.663-0.26359-21.422-2.7422-1.422-0.74067-7.3444-3.4837-13.161-6.0957-9.7488-4.3778-27.218-13.931-33.376-18.252-9.6295-6.7572-37.963-19.009-52.914-22.88-10.077-2.6093-13.358-2.5812-18.705 0.16008-2.8397 1.4558-6.1684 2.1964-9.7275 2.1642-3.4585-0.03128-5.8495 0.48257-6.6271 1.4241-1.4825 1.795-5.2726 1.9229-6.9527 0.23463-3.6802-3.6982-36.839-0.79938-49.863 4.359-2.9875 1.1833-5.5906 1.9919-5.7847 1.7969-0.79449-0.79836 4.1585-9.2775 7.9431-13.598 5.5804-6.3706 5.3461-7.3322-1.6104-6.6108-11.301 1.1721-23.087 10.625-27.277 21.878-2.379 6.3896-2.8894 14.116-1.1485 17.385 1.1337 2.1286 8.8911 6.4403 13.665 7.5954 1.8638 0.45093 2.8439 1.3682 2.8439 2.6617 0 3.7282 1.3022 5.3626 6.2996 7.9074 8.1432 4.1466 8.9856 3.6626 7.1875-4.1285-1.3275-5.7519 0.64754-8.9574 8.4558-13.724 5.5251-3.3727 7.5969-4.0279 14.237-4.5027 12.68-0.90651 19.953 0.27045 28.448 4.6032 9.7813 4.989 18.284 12.687 24.384 22.077 6.6233 10.195 9.2915 18.341 9.9711 30.439 0.305 5.4298 0.99639 10.43 1.5364 11.112 0.6258 0.78993 0.50914 4.0667-0.32172 9.0355-1.5819 9.4602-0.37589 13.81 3.5049 12.643 1.2636-0.38018 5.155-0.9588 8.6474-1.2858 5.3695-0.5028 7.0243-1.1783 10.719-4.3756l4.3687-3.781-1.0945-7.0646c-1.4332-9.2509-0.72507-11.229 2.6075-7.2829 1.3706 1.6228 3.1277 4.3535 3.9048 6.0682 4.7583 10.5 13.144 16.457 24.969 17.737 12.084 1.3086 14.775-4.2901 8.7228-18.147-3.0745-7.0391-3.816-9.7292-6.6184-24.012-0.8411-4.2867-1.8553-8.8462-2.2538-10.132-1.2089-3.9011 2.3285-2.9315 19.375 5.3108 11.482 5.5515 18.952 8.4194 27.243 10.458 13.465 3.3114 17.976 5.655 23.465 12.189 6.7866 8.0793 6.4077 13.951-1.4194 21.991-2.5719 2.6418-2.7932 3.4478-2.2834 8.3136 0.31051 2.9635 1.4376 6.6405 2.5046 8.1712 2.2912 3.2866 6.1235 13.076 6.1243 15.643 0.0003 1.0363-0.98578 1.9941-2.3263 2.2596-1.2798 0.25344-4.4148 0.84767-6.9667 1.3205-5.8093 1.0764-6.5526 3.4709-2.2158 7.1379 7.7636 6.5646 9.1316 14.001 9.6455 52.433l0.31266 23.382-7.7562-0.0632c-5.6003-0.0456-10.199-0.87577-16.546-2.9868-4.8347-1.608-9.2203-3.3211-9.7459-3.8069-0.56507-0.52226 0.17451-1.9356 1.8098-3.4585 1.521-1.4164 2.7654-3.2436 2.7654-4.0604s1.5884-2.7025 3.5298-4.1905c3.3082-2.5356 3.5762-3.2028 4.2684-10.625 0.64689-6.9369 1.1072-8.2499 3.7092-10.58 1.6339-1.4629 2.9707-3.724 2.9707-5.0247s0.52397-2.6903 1.1644-3.088c1.7041-1.0584 0.52788-12.76-1.7722-17.631-2.1209-4.4912-15.065-17.977-22.194-23.123-8.825-6.3704-15.215-8.8241-25.13-9.6494-10.787-0.89792-17.195 0.39796-27.536 5.5685-15.989 7.9952-24.904 25.491-20.483 40.2 1.2353 4.1106 1.821 4.7263 5.1591 5.4232 2.0711 0.43241 5.2886 1.7169 7.1502 2.8545 3.5293 2.1568 6.0795 1.4666 6.0795-1.6453 0-2.4057 4.7765-11.092 7.5055-13.649 6.4002-5.9967 19.075-2.8037 25.012 6.3007 3.1236 4.7905 2.276 9.9582-3.4953 21.311-2.8801 5.6651-5.2365 11.308-5.2365 12.539 0 2.9473-3.7834 2.992-9.4029 0.11117-7.1325-3.6565-29.765-17.511-44.879-27.474-13.561-8.9388-21.655-12.814-33.621-16.097-2.5595-0.70225-7.2132-2.1307-10.342-3.1744-7.6288-2.5451-13.215-3.9771-17.833-4.5713-2.1065-0.27102-4.8258-1.0283-6.0429-1.6828-1.2171-0.65455-3.9051-0.97744-5.9732-0.71755-2.2666 0.28483-4.9928-0.17562-6.8628-1.1591-4.1893-2.2033-18.227-2.0665-23.653 0.23051-2.4298 1.0285-6.9028 1.6981-11.376 1.7029-9.3104 0.0104-18.807 1.52-28.008 4.4536-5.6099 1.7887-8.5111 3.5184-13.185 7.861-3.2962 3.0623-5.993 6.0568-5.993 6.6545 0 1.0949-4.0806 10.497-6.6477 15.316-1.8134 3.4048-4.728 16.54-4.728 21.308 0 9.9443 5.3533 19.229 13.492 23.402 4.7922 2.4567 6.5244 1.3376 7.5703-4.8912 0.36635-2.1817 1.4792-5.0179 2.4729-6.3027l1.8068-2.336 5.4636 2.0861c3.005 1.1474 7.3556 3.3443 9.668 4.882 4.8235 3.2076 10.401 3.6626 12.991 1.0599 1.6139-1.6218 1.5716-2.0705-0.64423-6.8244-2.7931-5.9925-2.4131-9.1329 1.9398-16.03 2.5035-3.9668 4.0172-5.08 10.249-7.5369 6.8341-2.6943 7.701-2.8041 13.27-1.6803 12.79 2.5811 29.252 12.585 34.951 21.239 6.2811 9.5383 9.4662 28.415 6.2991 37.331-3.1757 8.9402-10.542 20.176-18.114 27.631-6.0995 6.0045-7.4079 7.8039-6.2224 8.5575 2.6139 1.6616 5.1371 1.0898 12.726-2.8838 5.1042-2.6728 9.8244-6.3696 15.259-11.951 5.5006-5.649 8.617-8.0809 10.355-8.0809 3.0881 0 13.318-6.7868 13.318-8.8357 0-0.82833 0.929-3.0372 2.0644-4.9086 5.1768-8.5321-0.32636-26.466-12.476-40.66-2.0295-2.3708-4.7126-5.7959-5.9626-7.6114-5.2436-7.6162-30.554-25.06-43.089-29.698-9.3119-3.4449-14.61-3.4886-26.216-0.21635-5.5981 1.5784-7.9132 3.0852-16.385 10.665-10.341 9.2515-17.372 18.678-18.52 24.831-1.0309 5.5217-2.6669 2.6024-3.2673-5.8301-0.72261-10.149 0.89623-14.973 8.0778-24.073 6.0941-7.7217 12.862-12.341 18.13-12.373 1.1834-0.007 4.3503-1.1319 7.0376-2.4991 2.6873-1.3671 5.7386-2.2617 6.7806-1.9879 1.042 0.27381 2.2072-0.0106 2.5893-0.63189 0.38215-0.62136 1.7377-1.1297 3.0123-1.1297s2.8234-0.50839 3.4418-1.1297c0.62816-0.63122 1.3771-0.71872 1.6971-0.1983 0.31883 0.51839 3.2368 0.59743 6.5802 0.17823 12.045-1.5102 16.293-1.1562 18.842 1.5703 1.2849 1.3744 3.9059 2.7948 5.8244 3.1564 1.9186 0.36168 4.7877 1.3387 6.3759 2.1711 1.5882 0.83245 3.4692 1.5164 4.18 1.5199 2.4149 0.012 12.684 11.255 13.354 14.62 0.36661 1.842 1.5805 3.6662 2.8229 4.2424 1.1988 0.55597 3.5223 3.0045 5.1631 5.4411 1.6409 2.4366 5.2957 6.2671 8.1218 8.5121s8.5051 7.4482 12.62 11.563c6.1443 6.1438 7.9087 7.3686 9.8719 6.8527 1.5338-0.40306 2.8014-0.0634 3.5372 0.94773 1.9804 2.7216 11.214 6.7931 18.201 8.0261 3.6926 0.65159 13.462 1.8188 21.709 2.5938 8.2474 0.77502 16.857 2.1396 19.132 3.0324 2.2751 0.89278 6.9288 2.4108 10.342 3.3733 3.4127 0.96255 8.5318 2.8034 11.376 4.0907 6.9168 3.131 9.9392 3.6894 21.9 4.0465 14.121 0.42154 17.377 2.0795 21.77 11.084 4.4344 9.0902 5.0374 17.877 1.4282 20.814-3.7717 3.069-8.0813 2.372-19.244-3.1124-34.635-17.017-43.967-18.946-67.638-13.985-14.225 2.9816-45.243 17.381-53.855 25.001l-2.6054 2.3054 18.615 0.25776c40.146 0.5559 57.989 0.43067 59.724-0.4192 0.99636-0.48792 6.8135-0.9504 12.927-1.0277 9.6107-0.12158 11.885-0.50336 16.803-2.8203 4.7933-2.2582 7.1517-2.6796 14.995-2.6796 8.7847 0 9.5266 0.17507 13.211 3.1176 5.2805 4.2176 6.6625 8.974 5.0729 17.459-0.6638 3.5434-1.2402 10.184-1.2808 14.756-0.0406 4.5725-0.11575 9.493-0.16692 10.935-0.0512 1.4415 0.73675 4.3782 1.751 6.5259 1.7813 3.772 1.7779 3.9784-0.0981 6.0647-2.687 2.988-11.103 7.1243-14.576 7.1642-1.5831 0.0182-3.7816 0.71964-4.8857 1.5588-2.4571 1.8675-5.7107 1.8144-12.471-0.20376zm-208.58-74.31c4.3132-1.0802 19.85-10.814 21.473-13.452 0.33979-0.55249 2.3238-2.0932 4.409-3.4238 3.8886-2.4815 6.3651-7.5994 7.972-16.475 0.97618-5.3918-0.36266-14.967-2.3756-16.99-1.531-1.5384-1.7789-1.5174-3.0735 0.26042-0.77452 1.0636-2.0989 4.3202-2.9431 7.2368-1.565 5.4071-7.1051 12.96-11.134 15.178-1.2296 0.67713-6.1912 1.5638-11.026 1.9704-4.8347 0.40659-10.101 1.0764-11.702 1.4885-2.2791 0.58648-3.228 0.29537-4.3679-1.3401-1.754-2.5164-10.994-7.5318-13.876-7.5318-1.7213 0-1.9629 0.49532-1.464 3.0018 0.66268 3.3296 1.017 3.143-13.059 6.8773-3.6971 0.98083-7.6527 2.3113-8.7903 2.9566-1.1376 0.64529-3.6971 1.6604-5.6878 2.2558-4.4962 1.3448-5.0295 5.0648-1.0342 7.2144 14.051 7.5598 26.482 10.804 36.712 9.5818 2.2751-0.27184 5.7654 0.12266 7.7562 0.87667 4.634 1.7552 6.2851 1.7976 12.21 0.3136zm-62.362-15.419c0.354-0.5756-0.10397-1.3348-1.0177-1.6872-1.98-0.76352-3.0835 0.0778-2.1318 1.6254 0.85874 1.3962 2.3112 1.4248 3.1495 0.0618zm-87.021-12.99c2.0522-0.86164 6.181-2.0834 9.1751-2.7151 2.9941-0.63165 6.1419-1.7549 6.9951-2.4962 1.4585-1.2672 6.2744-2.9335 16.143-5.5858 4.1957-1.1276 11.512-6.1626 13.125-9.0325 1.248-2.2202-3.9972-3.8496-10.137-3.149-2.8439 0.3245-7.963 0.89761-11.376 1.2736-3.4127 0.37596-6.903 1.2798-7.7561 2.0085-0.85318 0.72874-3.4748 1.8395-5.8259 2.4683-2.3511 0.62883-4.8264 1.8114-5.5008 2.6279-0.67434 0.8165-2.6391 1.7964-4.3661 2.1776-1.9414 0.42848-3.7892 1.8398-4.8408 3.6974-0.93542 1.6524-2.4221 3.0074-3.3037 3.011-2.1296 0.008-4.0849 2.0695-4.0849 4.3054 0 1.2573 1.0194 1.9318 3.361 2.2238 1.8485 0.23052 3.6532 0.49397 4.0103 0.58544 0.35713 0.0915 2.3284-0.53867 4.3806-1.4003zm324-64.5c0.34432-0.90166-0.13751-2.4066-1.0707-3.3444-1.5729-1.5806-1.8663-1.5343-4.0195 0.6344-1.9881 2.0024-2.0992 2.4819-0.77151 3.3285 2.3627 1.5065 5.1631 1.211 5.8617-0.61848zm-57.994-21.871c1.1158-5.9769-0.36767-8.8876-8.555-16.785-8.9792-8.6615-23.285-16.523-36.523-20.071-11.32-3.0337-26.764-3.7198-35.128-1.5606-11.457 2.9576-16.711 7.291-10.383 8.5629 2.0892 0.41988 3.596 1.5134 4.1678 3.0247 0.72397 1.9135 3.3998 3.1822 13.964 6.6209 7.1874 2.3396 15.008 5.1384 17.38 6.2195 2.3714 1.0811 6.9307 2.2915 10.132 2.6896 4.1392 0.51485 9.9636 2.7861 20.166 7.8638 11.968 5.9564 15.156 7.1225 19.236 7.0352 4.7047-0.1007 4.9154-0.23753 5.5431-3.5998zm-77.137-104.31c0-1.1547-0.68944-2.0784-1.5512-2.0784-1.5744 0-2.1213 2.1983-0.86179 3.464 1.3111 1.3175 2.413 0.68473 2.413-1.3856zm161.38-40.036c1.6781-0.87201 3.0511-2.0118 3.0511-2.5329 0-1.2748 12.729-7.5115 14.512-7.1106 1.0233 0.23 1.4906-1.1419 1.6968-4.9819l0.28462-5.2993-5.4029-2.6601c-2.9716-1.4631-8.6124-3.6988-12.535-4.9684-9.6396-3.1197-22.422-2.5407-30.997 1.4042-5.6664 2.6068-5.8226 2.7908-5.8226 6.8564 0 3.276 0.50224 4.4427 2.3268 5.4052 1.2798 0.67511 2.699 1.8607 3.1538 2.6346 1.0797 1.837 4.8494 1.7427 7.3853-0.18474 5.073-3.8558 15.066 0.59367 13.612 6.0607-0.33441 1.2572-0.89863 3.3381-1.2538 4.6241-0.58487 2.1176-0.28812 2.3382 3.1457 2.3382 2.0853 0 5.1645-0.71347 6.8426-1.5855zm27.871-16.6c-0.70807-0.85734-1.6812-1.5588-2.1625-1.5588-0.48128 0-0.6072 0.70146-0.27981 1.5588 0.32741 0.85734 1.3005 1.5588 2.1625 1.5588 1.2758 0 1.3278-0.28982 0.27981-1.5588zm-63.4-27.952c2.8708-2.4274 12.783-5.0965 15.309-4.1225 0.63998 0.24678 2.8572-1.2042 4.9272-3.2243 2.07-2.0202 4.4848-3.673 5.3661-3.673 0.91305 0 1.6025-0.89418 1.6025-2.0784 0-1.7664 0.68944-2.0784 4.5926-2.0784 5.5717 0 6.8317-1.4768 2.9388-3.4443-6.9012-3.488-35.769-11.65-48.651-13.756-8.6346-1.4113-10.514-1.4021-19.092 0.09343-5.2329 0.91236-11.977 2.7907-14.987 4.1742-4.4929 2.0651-5.7696 3.2616-7.1325 6.6847-0.91308 2.2931-2.075 4.1693-2.582 4.1693-0.50703 0-0.92187 0.93528-0.92187 2.0784s0.35921 2.0784 0.79824 2.0784c0.43902 0 4.6324 2.5059 9.3186 5.5687 7.2006 4.7062 9.5153 5.6732 14.944 6.2434 3.5329 0.37106 7.0332 1.2874 7.7786 2.0364 0.91189 0.91634 4.8608 1.4309 12.074 1.5734 10.011 0.19771 10.917 0.04436 13.717-2.3236zm-240.64-15.523c0-1.9546-0.99519-2.721-2.6865-2.0688-2.1997 0.84822-1.7333 3.4544 0.61819 3.4544 1.1376 0 2.0683-0.62352 2.0683-1.3856zm-8.2732-1.7155c2.4908-0.78575 2.4247-0.88273-1.8098-2.652-2.4173-1.0101-4.3952-2.2332-4.3952-2.718 0-1.2695-2.854-1.087-3.6668 0.23457-0.89089 1.4485 3.5385 6.1893 5.6569 6.0547 0.89623-0.05697 2.7929-0.47059 4.2149-0.91916zm98.244 395.51c0-0.22463 0.69806-0.67759 1.5512-1.0066 0.85318-0.32898 1.5512-0.14519 1.5512 0.40842 0 0.55362-0.69805 1.0066-1.5512 1.0066-0.85317 0-1.5512-0.1838-1.5512-0.40842zm110.4-4.251c-1.5642-1.3834-2.8439-3.0054-2.8439-3.6043 0-1.5197 4.9061-1.3312 9.7883 0.37627 5.5368 1.9364 6.2417 4.1174 1.0121 3.1315-3.3507-0.63166-3.8039-0.49589-3.2435 0.97164 0.95218 2.4934-1.3976 2.0571-4.713-0.8751zm-318.26 0.8c-6.5436-0.69455-6.7039-1.0998-2.1805-5.5112 2.3381-2.2801 4.7157-4.1457 5.2836-4.1457 0.56784 0 3.2432 1.1364 5.9452 2.5254s6.2633 3.0481 7.914 3.6869c1.6825 0.65116 2.5913 1.538 2.0683 2.0183-1.107 1.0166-13.875 1.9735-19.031 1.4262zm217.17-2.4151c0-1.3395 2.9464-2.549 3.8927-1.5981 0.38558 0.38747 0.0164 1.1395-0.82022 1.6713-2.0019 1.2722-3.0725 1.2467-3.0725-0.0732zm-166.77-5.06c-1.7182-1.9378-2.4885-3.7746-2.1418-5.107 0.56048-2.1537-2.5129-4.6732-5.0944-4.1762-3.0404 0.58527-6.0984-1.5692-7.6078-5.3599-1.8287-4.5926-4.1077-5.9007-6.496-3.7288-2.5727 2.3396-11.31 3.0751-16.133 1.3581-2.2751-0.80992-4.1366-1.9282-4.1366-2.4852 0-0.55692 2.2139-3.487 4.9198-6.5113 3.9784-4.4465 5.1998-5.2652 6.3831-4.2784 0.81302 0.67804 3.6659 1.0781 6.4199 0.90029 4.5665-0.29484 5.2508-0.71197 8.6949-5.3001 2.056-2.739 5.5055-6.1868 7.6654-7.6617 3.46-2.3626 4.5973-2.6025 9.5595-2.0164 14.532 1.7162 24.094 11.182 24.094 23.851 0 15.908-17.811 29.894-26.127 20.516zm229.34 1.4632c-0.56878-0.19788-4.5244-1.4042-8.7903-2.6807-8.9556-2.6798-11.037-4.0003-6.6703-4.2311 1.6779-0.0887 5.1449-0.31885 7.7044-0.51147 6.5549-0.49333 13.77 1.3729 15.391 3.9809 1.1112 1.788 1.1039 2.3206-0.0417 3.0503-1.3707 0.87301-5.5849 1.0906-7.5929 0.39196zm10.342-0.51533c-0.36249-0.58939 0.50634-1.0392 2.0073-1.0392 1.4555 0 2.6464 0.46763 2.6464 1.0392 0 0.57156-0.90327 1.0392-2.0073 1.0392s-2.2949-0.46764-2.6464-1.0392zm-76.01-7.1266c0-1.0116 3.165-3.2653 4.5857-3.2653 0.32179 0 0.58506 0.70146 0.58506 1.5588 0 0.85733-0.42731 1.5588-0.94957 1.5588-0.52227 0-1.6857 0.28385-2.5854 0.63078s-1.6358 0.12957-1.6358-0.48304zm202.99-269.8c-8.9103-1.6239-21.165-6.1583-23.323-8.63-2.8206-3.2303-3.1027-6.1738-0.81224-8.4754 2.5123-2.5246 4.5383-2.649 10.237-0.62863 2.3315 0.8266 6.462 1.4829 9.1789 1.4585 7.2057-0.0648 7.5252 0.007 7.5252 1.7011 0 0.84967 1.5197 2.1829 3.3772 2.9628 3.6648 1.5387 10.067 8.2071 10.067 10.486 0 2.9663-4.457 3.2752-16.25 1.126zm-427.18-63.143c-0.5875-0.714-1.3868-3.012-1.7762-5.106-0.5923-3.185-0.365-3.992 1.3907-4.936 4.662-2.507 13.611-0.589 13.611 2.917 0 3.4158-1.1608 5.3191-4.2106 6.9039-3.5855 1.8631-7.5834 1.9613-9.0142 0.22136z"/>
 <path id="path3536" opacity="0" d="m400.16 438.11c-4.4656-7.506 9.7494 5.2882 0 0zm-271.41-3.9888c-7.5487-15.36 5.2078-2.2845 0 0zm299.34-0.60598c-14.668-5.9001-32.152-20.47-46.509-17.714 6.6865 5.8698 14.026 21.259-0.83161 10.244-19.083-10.901-37.775-21.494-59.743-25.156-7.0065-2.9758-45.441 1.3477-21.503-4.8372 18.786-0.57106 33.237 0.81191 51.454 4.3841 20.999 0.55527 40.267-1.6041 59.522-7.7291 11.181-3.7604 39.88-2.0047 21.929 14.272-20.145 7.2406-2.9189 16.1 3.4866 26.869-2.3448 1.4588-5.4824-0.12828-7.8048-0.33294zm-344.82-3.84c2.9469-8.1244 4.5263-0.46414 0 0zm40.398-8.3631c0.95383-3.8873 0.44341 4.5131 0 0zm-3.5994-4.7592c-3.5946-10.186 7.0314 7.3314 0 0zm-91.116-4.0706c8.7375-5.168 21.948-3.1784 28.289-15.795 26.29-5.2184-6.0057 11.948-14.864 15.576-2.7398-1.2384-13.376 2.1426-13.425 0.2194zm224.44-5.0813c7.4623-6.1127 10.909-11.554 9.8415-15.619 17.786-1.9652 39.515-9.8585 55.528-23.625 11.737-20.498 37.698-34.139 61.065-25.665 20.266 9.7201 43.669 11.005 63.676 19.734 18.198 23.507-21.344 6.75-30.944 0.93132-32.299-14.348-68.026-1.7609-97.807 12.629-17.758 7.008-24.032 24.687-40.63 27.092-6.6572 0.37521-14.668 6.312-20.73 4.5227zm-38.326-11.532c5.3214-6.278 36.324-14.613 13.486-1.8185-3.7461 2.3124-9.3859 4.2741-13.486 1.8185zm-28.605-7.03c-25.365-11.574 24.307 4.5047 0 0zm53.984-4.2633c15.616-12.286 31.937-38.084 20.787-56.672-7.2759-8.9319-33.364-41.333-36.284-14.99-13.184-0.0938-13.018 28.342-31.596 21.492-13.399 7.6579-7.3511-1.2163-12.839-6.2212-13.673 16.11-5.1126-18.959 7.5565-4.8636 8.6807 8.5173 27.883 4.5175 16.537-8.1917 0.0779-26.163 36.741-23.443 50.169-8.4454 18.307 13.314 22.62 42.751 6.791 59.708-4.5108 7.3764-13.538 17.245-21.122 18.184zm-212.28-11.1c3.6483-10.639 8.0604-0.0722 0 0zm-15.229-33.58c11.224-6.3727 27.345-16.989 38.489-15.682-10.546 7.8415-26.609 14.909-38.489 15.682zm135.22-8.6054c-6.7589-9.5309-7.9504-23.136-23.711-19.663-13.359-4.2455-35.018 1.1871-44.035 0.69754 14.901-11.327 40.717-4.0959 50.734-19.561 10.329-10.13 30.05-25.451 29.84-39.135-20.985-9.7125-46.745-13.119-68.915-5.5782-28.053 11.565-48.357 35.193-74.053 50.303 9.0205-15.345 26.22-23.854 39.345-35.579 10.719-7.7256 39.555-32.629 8.6584-26.76-11.839-1.3423-30.097 15.34-36.945 8.4741 21.702-21.908 55.002-29.217 85.006-27.272 22.981-1.2638 28.887 29.883 54.068 22.196 27.621-3.2628 51.084-21.091 78.64-25.237 17.344-5.4567 40.544 1.1291 52.706-15.492 14.318-26.399-1.3246-63.007-28.121-74.51-18.474-5.5249 3.0283 24.879-12.728 29.544-9.9816-23.7-35.202 5.9301-52.07-5.1747 8.0325-18.951 38.844 10.685 26.831-17.269 13.456-19.729 43.98-14.555 59.762-0.18933 22.201 17.346 29.552 52.432 11.08 75.15-8.1626 19.216 27.748 17.509 36.708 19.863 8.5874-24.736 34.466-6.335 53.657-12.204 15.633-7.719-23.713-43.927 9.5026-41.69 12.45 5.5189 47.972 6.5217 40.846 24.674-23.77-0.18507-30.768 29.459-4.6087 33.448 20.377 13.491-17.04 5.5883-23.73-0.0826-21.399-10.988-48.981-11.247-67.624 5.4326-9.8117 7.4325-12.487 25.009-21.735 6.2798-23.418-16.335-52.509-24.576-80.658-25.65-11.843 6.4656-35.472 9.4448-34.42 24.922-14.922 9.5359-48.155 10.445-55.726 34.638-5.6947 17.327-13.444 40.656 4.3519 53.772 12.177 6.3137-10.072 4.6021-12.657 1.6549zm290.84-13.553c-6.7363-17.299 15.634-0.48244 1.667 2.3282l-1.667-2.3282 0.00001 0.00003zm-72.176-17.496c-15.529-8.0202 30.265-15.923 11.259-2.9392-3.416 4.0104-6.3851 9.0316-11.259 2.9392zm-187.38-7.4443c2.6922-9.809 14.959-14.558 4.2191-2.0784 2.6493-0.0139-5.014 5.6048-4.2191 2.0784zm205.94-7.3922c5.881-7.1132-3.4573 8.0959 0 0zm-42.546-4.8183c4.7827-4.2025 5.5566 4.0679 0 0zm15.512-2.1811c-5.1472-17.096 30.227-15.687 21.662-11.369-10.55-5.1883-15.026 18.709-21.662 11.369zm28.956-5.0932c-3.2557-8.9709 5.6162 6.5506 0 0zm-360.26-78.76c13.502-22.251 43.519-22.549 62.409-38.591 13.608-4.9462 52.945 3.409 45.67 18.313 0.82449 9.566 27.685 15.51 6.4743 10.338-29.925-11.87-65.264-16.01-94.382 0.4344-6.5292 3.1652-13.536 7.4276-20.171 9.5058zm104.83-23.09c-8.002-7.9231 1.919 7.3376 0 0zm-5.1708-1.0392c-1.5439-3.2832-2.3314 3.5667 0 0zm51.559 22.822c-10.31 1.49-29.728-8.3089-9.3424-8.8288 20.628 1.6202 41.48 1.1548 60.53-7.7902 11.931-3.2435 21.622-13.59 28.211-19.105-5.1156 17.882-25.327 31.033-44.433 34.295-11.47 2.4174-23.34 2.7853-34.966 1.4288zm72.023-23.861c0.0884-3.9796-4.7304 4.1914 0 0zm-109.1 3.1176c1.5526-6.4364 3.7909 7.1274 0 0zm-69.997-32.59c22.288-8.6826 47.343-9.1119 71.053-7.878 23.67 4.905-19.118 6.696-27.013 6.3847-13.886-1.6898-33.93 3.4259-44.04 1.4934zm358.77-0.14884c-10.646-1.8171-38.14-13.572-12.441-14.991 10.327-5.6024 21.74-7.0654 28.514 4.4355 5.485 11.648-8.1804 14.204-16.074 10.555zm-219.89-4.3823c-11.428-2.3124-40 2.6655-16.11-9.0682 3.3009-6.3159 36.209 11.722 16.11 9.0682zm190.17-8.6006c1.3479-3.8753 4.3065 3.5482 0 0zm-7.4976-3.6748c-11.586-6.9066 13.193 3.6207 0 0zm-9.1203-4.7549c3.879-9.3446 12.528 3.3699 0 0zm9.6652-9.8148c-19.439 3.6818-3.1717-13.171 3.8372-2.3652-0.21387 1.5741-2.1404 3.9547-3.8372 2.3652zm-21.487-5.657c-2.7218-3.8019 6.0951 2.7506 0 0zm-13.961-3.0943c-28.718-8.3483-56.268-21.505-86.524-23.778-24.298-5.5537-51.786 0.53104-68.019 20.426-8.2411-1.3383-25.298-4.4747-31.518-9.8568 19.674 3.8607 39.062-3.6073 56.213-13.577 14.285-9.0098 36.26-6.7511 45.562-21.04 10.883-7.7998 34.438-21.576 36.47-25.607-15.716-20.389 16.206-9.4208 29.98-10.48 21.908 3.6344 43.735-5.9095 64.69-3.5794-10.001 4.169-40.47 14.214-13.161 14.899 17.73 4.0173 36.185 8.1321 52.025 15.592 6.8096 26.196-32.584 5.4328-46.007 3.1983-28.022-9.4139-60.495-17.397-87.714-0.98803-13.74 4.5216-25.744 21.885-4.4203 25.61 20.209 8.1526 42.391 14.163 64.056 14.171 13.008-4.5201-3.7228 12.173-4.9293 16.753l-3.0279-0.4266-3.6754-1.3149 0.001-0.00016zm50.16-65.051c-2.3112-4.1322-1.1509 5.0493 0 0zm-358.08 56.84c7.611-10.196 19.315-21.875-0.422-25.411-13.31-8.485-9.384-11.598-26.302-13.74-13.183-6.143 18.21-15.409-2.439-13.317-11.738-13.786 27.733-21.775 40.281-24.107 10.498-0.392-17.274 13.27-20.528 18.109-21.954 14.154 19.132 9.323 27.359 4.144 21.686-6.366 44.121-8.52 66.611-6.137 15.186 4.221 28.418 0.04102 39.352-8.693-6.4059-10.54 11.785-16.532 14.964-7.9645-0.15333 17.532 17.093 15.204 29.17 15.529-8.9879-28.325 36.267-12.328 19.794 8.7195-13.318 24.326-43.125 33.1-68.921 36.427-19.968-0.67134 14.694 17.553-8.0952 11.354-22.63-11.46-49.51-18.523-73.985-8.351-12.19 2.737-27.631 11.596-36.819 13.416zm117.86-22.829c16.806-9.7118-19.252-20.278-28.735-22.355-28.303-6.8069-58.791-6.2015-85.933 4.9825-24.865 6.4468 25.143 14.273 34.581 9.2587 22.457-1.0378 44.222 4.9793 66.08 8.4354 4.6714 0.08332 9.3411-0.14694 14.007-0.32144zm260.05 20.394c-12.634-9.4103-39.209-2.6634-45.527-9.5821 15.651-6.6527 35.466-11.994 53.115-8.5534 7.4874 7.9902 4.6503 27.296-7.5884 18.136z"/>
</svg>
