<?xml version="1.0" encoding="UTF-8" standalone="no"?>
<!-- Created with Inkscape (http://www.inkscape.org/) -->

<svg
   xmlns:dc="http://purl.org/dc/elements/1.1/"
   xmlns:cc="http://creativecommons.org/ns#"
   xmlns:rdf="http://www.w3.org/1999/02/22-rdf-syntax-ns#"
   xmlns:svg="http://www.w3.org/2000/svg"
   xmlns="http://www.w3.org/2000/svg"
   xmlns:sodipodi="http://sodipodi.sourceforge.net/DTD/sodipodi-0.dtd"
   xmlns:inkscape="http://www.inkscape.org/namespaces/inkscape"
   width="400"
   height="400"
   viewBox="0 0 399.99998 399.99998"
   id="svg2"
   version="1.1"
   inkscape:version="0.91 r13725"
   sodipodi:docname="river.svg">
  <defs
     id="defs4" />
  <sodipodi:namedview
     id="base"
     pagecolor="#ffffff"
     bordercolor="#666666"
     borderopacity="1.0"
     inkscape:pageopacity="0.0"
     inkscape:pageshadow="2"
     inkscape:zoom="0.35"
     inkscape:cx="375"
     inkscape:cy="520"
     inkscape:document-units="px"
     inkscape:current-layer="layer1"
     showgrid="false"
     units="px"
     inkscape:window-width="878"
     inkscape:window-height="718"
     inkscape:window-x="0"
     inkscape:window-y="1"
     inkscape:window-maximized="0" />
  <metadata
     id="metadata7">
    <rdf:RDF>
      <cc:Work
         rdf:about="">
        <dc:format>image/svg+xml</dc:format>
        <dc:type
           rdf:resource="http://purl.org/dc/dcmitype/StillImage" />
        <dc:title></dc:title>
      </cc:Work>
    </rdf:RDF>
  </metadata>
  <g
     inkscape:label="Ebene 1"
     inkscape:groupmode="layer"
     id="layer1"
     transform="translate(0,-652.36216)">
    <g
       id="g3419"
       transform="matrix(0.93068428,0,0,0.93068428,-107.64669,575.54175)">
      <path
         style="fill:#a6cdee"
         d="m 262.24671,427.76879 c -18.16667,-12.08328 -24.58258,-37.8041 -48.02288,-42.6999 -28.11399,-9.95287 -58.98334,-21.50085 -76.49834,-47.07734 -7.19732,-17.08115 -0.43159,-33.7818 15.67522,-42.13304 3.62268,-10.96041 -19.69279,-21.25565 -0.52202,-28.50729 17.88939,-5.74868 35.34652,-13.81262 54.43572,-14.59601 29.37533,-0.88203 55.91067,-14.23425 83.95213,-21.25262 26.69705,-8.6045 54.40101,-16.89953 82.8008,-13.56743 18.99008,1.73338 40.55464,3.20015 55.56547,-10.96077 20.41125,-16.86068 46.75306,-26.14976 73.30525,-23.84966 14.22914,2.55542 38.50674,-1.10809 46.75434,6.97304 -22.5932,6.53963 -46.79837,5.61791 -69.11379,13.0714 -12.82275,10.26058 -22.77106,24.56926 -38.12333,31.90675 -16.94249,11.26675 -37.44224,12.59637 -57.13284,11.80041 -19.54123,-0.39995 -39.63439,-0.25277 -57.56137,8.69004 -18.21446,3.256 -29.48387,15.14653 -35.09728,31.8835 -16.41564,14.85075 -41.3441,14.9386 -58.30277,29.05244 3.84983,14.38463 30.36492,12.9759 43.744,17.75202 39.06051,8.14924 80.51165,10.626 115.74952,31.17232 10.85026,6.79903 27.98084,12.95307 35.23523,20.51478 -2.77471,3.29266 -27.01708,-0.82118 -16.50296,4.26238 16.93144,9.29725 -21.8715,-4.25458 -4.69302,5.48575 9.21734,3.34915 12.77473,9.28334 0.89966,4.54997 -8.06531,-2.41072 -32.19586,-15.90684 -14.05077,-3.12015 4.47261,3.88639 18.44638,13.90422 16.69388,16.17884 -20.42795,-3.14668 -36.51833,-18.24918 -54.49798,-26.88902 12.59432,10.75143 26.42351,20.16295 37.34703,32.83055 7.47103,6.94026 -15.05312,-2.72775 -17.53648,-5.47492 -6.41828,-3.83022 -25.51904,-19.58499 -24.41143,-14.61442 5.22941,4.93575 24.58615,19.81392 5.68671,14.01677 -22.55404,-4.57778 -33.51503,-27.32164 -52.43103,-37.83325 11.7833,15.04791 25.37156,29.1139 41.89074,39.00177 11.20092,12.61656 -16.70447,-0.61503 -22.44487,-4.32221 -15.58893,-12.74336 -25.60401,-32.1566 -45.19656,-39.87683 -13.45666,-6.37366 13.02343,8.42434 15.82125,12.86924 11.14938,13.81772 21.52533,28.56123 36.88558,38.23852 12.94148,11.2532 -15.68523,-1.53337 -17.9578,-7.20554 -8.58219,-5.43882 -22.3026,-26.57804 -25.43277,-25.84911 3.47689,8.72467 16.47134,19.26796 16.11642,25.77942 -5.72885,2.39283 -20.36532,-20.60036 -13.9132,-7.92679 2.9271,6.3767 16.13763,28.33307 2.68221,16.68007 -4.87265,-7.13497 -15.66478,-18.59639 -8.83247,-2.32618 1.41293,11.80403 -5.96923,-8.71034 -8.0844,4.88339 -2.59667,6.40484 -10.03234,5.98579 -14.8808,2.48911 z m 116.61045,-42.78415 c -6.02722,-7.2088 -1.92276,0.67135 0,0 z"
         id="path3433"
         inkscape:connector-curvature="0" />
      <path
         style="fill:#e7cca7"
         d="m 262.24671,427.76879 c -18.16667,-12.08328 -24.58258,-37.8041 -48.02288,-42.6999 -28.11399,-9.95287 -58.98334,-21.50085 -76.49834,-47.07734 -7.19732,-17.08115 -0.43159,-33.7818 15.67522,-42.13304 3.62268,-10.96041 -19.69279,-21.25565 -0.52202,-28.50729 17.88939,-5.74868 35.34652,-13.81262 54.43572,-14.59601 29.37533,-0.88203 55.91067,-14.23425 83.95213,-21.25262 26.69705,-8.6045 54.40101,-16.89953 82.8008,-13.56743 18.99008,1.73338 40.55464,3.20015 55.56547,-10.96077 20.41125,-16.86068 46.75306,-26.14976 73.30525,-23.84966 14.22914,2.55542 38.50674,-1.10809 46.75434,6.97304 -22.5932,6.53963 -46.79837,5.61791 -69.11379,13.0714 -12.82275,10.26058 -22.77106,24.56926 -38.12333,31.90675 -16.94249,11.26675 -37.44224,12.59637 -57.13284,11.80041 -19.54123,-0.39995 -39.63439,-0.25277 -57.56137,8.69004 -18.21446,3.256 -29.48387,15.14653 -35.09728,31.8835 -16.41564,14.85075 -41.3441,14.9386 -58.30277,29.05244 3.84983,14.38463 30.36492,12.9759 43.744,17.75202 39.06051,8.14924 80.51165,10.626 115.74952,31.17232 10.50619,7.00106 28.59494,12.57765 34.8715,20.77326 -14.89826,0.50305 -27.44407,5.97821 -40.7859,-2.68186 -25.10424,-12.18664 -51.24771,-22.24488 -78.78733,-27.31293 -8.26727,-1.45121 -29.74832,-7.91431 -30.63055,-5.36353 24.19714,8.49306 51.3032,9.47347 73.04158,24.14726 -32.6112,-14.12537 -67.87878,-20.10865 -101.74721,-30.38633 -20.10897,-1.83157 -40.20288,-8.42513 -57.06555,-19.5893 -8.48549,-17.90879 23.33572,-18.51002 34.83892,-24.56965 19.82391,-3.20931 41.12295,-9.57113 51.87065,-28.16253 4.65152,-11.66292 19.83616,-20.72539 27.15758,-23.49526 -10.2858,-4.19633 -21.43893,7.4317 -29.65745,18.19456 -4.4745,7.29947 -11.78247,12.33038 -4.23149,1.60414 5.19619,-5.80111 8.30273,-12.93549 -1.04062,-4.43438 -13.83498,12.98639 -28.79217,25.52234 -47.69775,30.17199 -8.71789,3.71509 -19.11752,4.7351 -5.49797,-0.49063 1.22165,-1.57065 -26.97727,-4.82244 -12.59854,-17.08662 0.0723,-4.5488 -17.97893,8.58107 -16.52582,16.43313 -5.5438,6.64161 -13.99119,14.94081 -0.4951,7.57051 9.3745,-2.54217 14.96498,-13.92405 17.48367,-4.93427 -12.16559,6.68086 -38.09424,13.24153 -30.92444,31.21154 13.00431,14.91147 -13.97143,-7.01954 -2.65748,-14.31728 5.75859,-9.24858 15.89126,-23.28574 14.04419,-31.91825 -5.55331,14.27269 -16.41474,25.81223 -27.60351,37.12187 -2.10195,6.89488 3.54434,10.45443 -1.53727,10.21084 6.3926,17.35879 27.75866,18.9383 40.04371,30.71103 23.04701,14.60549 56.12986,10.78244 73.91242,34.15746 5.63574,6.63169 5.62282,13.86619 3.31672,14.744 9.8714,9.40769 1.26596,29.75104 -12.70479,20.03337 z M 178.77097,290.8622 c 1.52172,-19.5264 24.49487,-20.66605 39.58619,-21.49378 6.40113,0.45046 32.04211,-4.18553 13.10482,-3.37687 -19.39974,1.12398 -40.34211,0.57446 -57.89724,9.72074 -2.01229,10.77668 -10.06019,-4.93579 -4.96551,8.35083 3.90869,1.84967 8.06364,22.32112 10.17174,6.79908 z m 72.4592,-12.93152 c 6.41342,-4.79271 17.18769,-14.33985 20.26422,-18.21485 -9.32604,5.68692 -20.23385,5.113 -29.83932,10.7037 -7.131,3.06791 -23.78735,3.81879 -6.17035,4.92736 14.32508,-3.47265 3.40824,14.17643 15.74545,2.58379 z m -2.37301,-4.38702 c 2.15852,-5.00566 3.70901,0.63582 0,0 z m 73.97813,-32.77062 c -3.84224,-2.36173 -20.35088,7.9437 -4.6933,2.07954 l 2.102,-0.7771 2.5913,-1.30244 z m -41.24896,169.98499 c -3.1255,-6.52955 3.62444,-0.55246 0,0 z m 55.06793,-16.67197 c -6.78128,-5.13483 -25.38725,-17.7503 -25.5557,-19.98923 9.64182,5.04957 27.50091,16.5232 28.94764,22.11478 l -1.56967,-0.91442 -1.82227,-1.21113 z m -7.7971,-19.85324 c -22.73139,-9.62846 -47.07814,-15.55579 -71.49866,-18.77758 -12.67821,0.51378 -27.89911,-6.37958 -39.5824,-12.68934 14.26692,5.39561 26.26836,7.9392 39.35491,9.7821 25.72062,6.49124 53.96068,8.34656 76.56946,23.351 -0.15897,2.2806 -5.37438,-4.64681 -4.84331,-1.66618 z M 189.21769,328.86197 c -11.51074,-9.25071 1.67049,-4.18248 4.62631,2.49077 l -1.5598,-0.73549 -3.06651,-1.75528 0,0 z m -11.28158,-10.0831 c 0.92391,-3.74276 0.42737,4.34511 0,0 z m 15.92105,-29.72554 c 5.24534,-13.79565 4.16241,5.51608 0,0 z"
         id="path3431"
         inkscape:connector-curvature="0" />
      <path
         style="fill:#89b9e0"
         d="m 264.98787,426.65675 c -18.31939,-9.92022 -23.18375,-34.56325 -44.1134,-41.03009 -29.07491,-11.02985 -61.50921,-20.84129 -80.7153,-47.07073 -6.17665,-14.05435 -4.85209,-32.57034 11.74596,-38.42668 15.40535,-10.99117 -19.89808,-25.19859 3.19657,-31.82437 19.4739,-7.12726 39.21452,-14.17432 60.1994,-14.77066 29.60301,-2.66776 56.50175,-16.49526 85.21231,-23.16694 20.6027,-6.61946 41.7546,-13.32423 63.71308,-10.94197 17.49874,-0.61584 35.86584,2.94528 52.75922,-2.5985 19.11761,-11.66228 36.54088,-28.11063 59.82627,-30.8761 22.98417,-3.0899 46.42954,-0.57544 69.24584,2.62519 -12.97709,5.22458 -30.02087,5.73498 -44.67297,8.1375 -17.33062,-0.39218 -30.15795,10.71357 -40.34935,23.29041 -18.77391,17.56293 -44.23717,27.30783 -70.00813,25.29317 -20.58941,-0.2291 -41.93439,-1.46194 -61.03389,7.79803 -16.68398,4.73794 -33.49276,12.11317 -36.91882,31.07856 -10.73524,13.5695 -30.10515,14.63051 -44.81988,22.22661 -13.037,1.57582 -23.97257,17.77604 -5.28281,21.08731 41.67718,13.28886 86.44529,14.10426 127.64305,29.01597 18.40359,7.97716 36.25537,17.44296 53.2179,28.10874 -9.19293,0.5163 -17.74228,0.76249 -21.39646,4.31321 -26.84659,-9.29282 -51.64084,-24.52333 -79.95937,-29.6033 -14.84548,-2.92244 -31.97795,-8.64863 -45.61993,-9.14094 24.59956,9.17572 52.46379,9.76889 74.70668,24.80768 -32.6112,-14.12537 -67.87878,-20.10865 -101.74721,-30.38633 -20.10897,-1.83157 -40.20288,-8.42513 -57.06555,-19.5893 -8.48549,-17.90879 23.33572,-18.51002 34.83892,-24.56965 19.82391,-3.20931 41.12295,-9.57113 51.87065,-28.16253 4.65152,-11.66292 19.83616,-20.72539 27.15758,-23.49526 -10.2858,-4.19633 -21.43893,7.4317 -29.65745,18.19456 -4.4745,7.29947 -11.78247,12.33038 -4.23149,1.60414 5.19619,-5.80111 8.30273,-12.93549 -1.04062,-4.43438 -13.83498,12.98639 -28.79217,25.52234 -47.69775,30.17199 -8.71789,3.71509 -19.11752,4.7351 -5.49797,-0.49063 1.22165,-1.57065 -26.97727,-4.82244 -12.59854,-17.08662 0.0723,-4.5488 -17.97893,8.58107 -16.52582,16.43313 -5.5438,6.64161 -13.99119,14.94081 -0.4951,7.57051 9.3745,-2.54217 14.96498,-13.92405 17.48367,-4.93427 -12.16559,6.68086 -38.09424,13.24153 -30.92444,31.21154 13.00431,14.91147 -13.97143,-7.01954 -2.65748,-14.31728 5.75859,-9.24858 15.89126,-23.28574 14.04419,-31.91825 -5.55331,14.27269 -16.41474,25.81223 -27.60351,37.12187 -2.10195,6.89488 3.54434,10.45443 -1.53727,10.21084 6.39416,17.36037 27.76306,18.94014 40.0495,30.71482 22.52557,14.3009 54.30525,10.71412 72.55249,32.46136 12.48831,15.16938 3.36438,15.54371 -0.67131,10.43366 3.53937,7.87649 9.90712,10.51304 7.73679,17.32469 -1.72621,5.47087 -5.88374,12.35093 -12.35825,7.59929 z M 178.77097,290.8622 c 1.52172,-19.5264 24.49487,-20.66605 39.58619,-21.49378 6.40113,0.45046 32.04211,-4.18553 13.10482,-3.37687 -19.39974,1.12398 -40.34211,0.57446 -57.89724,9.72074 -2.01229,10.77668 -10.06019,-4.93579 -4.96551,8.35083 3.90869,1.84967 8.06364,22.32112 10.17174,6.79908 z m 72.4592,-12.93152 c 6.41342,-4.79271 17.18769,-14.33985 20.26422,-18.21485 -9.32604,5.68692 -20.23385,5.113 -29.83932,10.7037 -7.131,3.06791 -23.78735,3.81879 -6.17035,4.92736 14.32508,-3.47265 3.40824,14.17643 15.74545,2.58379 z m -2.37301,-4.38702 c 2.15852,-5.00566 3.70901,0.63582 0,0 z m 73.97813,-32.77062 c -3.84224,-2.36173 -20.35088,7.9437 -4.6933,2.07954 l 2.102,-0.7771 2.5913,-1.30244 z M 273.85716,407.3622 c -2.45201,-7.09778 4.75454,7.17619 0,0 z m 62.7971,-13.27614 c -6.78128,-5.13483 -25.38725,-17.7503 -25.5557,-19.98923 9.64182,5.04957 27.50091,16.5232 28.94764,22.11478 l -1.56967,-0.91442 -1.82227,-1.21113 0,0 z m -7.7971,-19.85324 c -22.73139,-9.62846 -47.07814,-15.55579 -71.49866,-18.77758 -12.67821,0.51378 -27.89911,-6.37958 -39.5824,-12.68934 14.26692,5.39561 26.26836,7.9392 39.35491,9.7821 25.72062,6.49124 53.96068,8.34656 76.56946,23.351 -0.15897,2.2806 -5.37438,-4.64681 -4.84331,-1.66618 z M 189.21769,328.86197 c -11.51074,-9.25071 1.67049,-4.18248 4.62631,2.49077 l -1.5598,-0.73549 -3.06651,-1.75528 0,0 z m -11.28158,-10.0831 c 0.92391,-3.74276 0.42737,4.34511 0,0 z m 15.92105,-29.72554 c 5.24534,-13.79565 4.16241,5.51608 0,0 z"
         id="path3429"
         inkscape:connector-curvature="0" />
      <path
         style="fill:#6aa9d4"
         d="m 264.98787,426.65675 c -18.31939,-9.92022 -23.18375,-34.56325 -44.1134,-41.03009 -29.07491,-11.02985 -61.50921,-20.84129 -80.7153,-47.07073 -6.17665,-14.05435 -4.85209,-32.57034 11.74596,-38.42668 15.40535,-10.99117 -19.89808,-25.19859 3.19657,-31.82437 19.4739,-7.12726 39.21452,-14.17432 60.1994,-14.77066 29.60301,-2.66776 56.50175,-16.49526 85.21231,-23.16694 20.6027,-6.61946 41.7546,-13.32423 63.71308,-10.94197 17.49874,-0.61584 35.86584,2.94528 52.75922,-2.5985 19.11761,-11.66228 36.54088,-28.11063 59.82627,-30.8761 22.98417,-3.0899 46.42954,-0.57544 69.24584,2.62519 -12.97709,5.22458 -30.02087,5.73498 -44.67297,8.1375 -17.33062,-0.39218 -30.15795,10.71357 -40.34935,23.29041 -18.77391,17.56293 -44.23717,27.30783 -70.00813,25.29317 -20.58941,-0.2291 -41.93439,-1.46194 -61.03389,7.79803 -16.68398,4.73794 -33.49276,12.11317 -36.91882,31.07856 -10.73524,13.5695 -30.10515,14.63051 -44.81988,22.22661 -13.037,1.57582 -23.97257,17.77604 -5.28281,21.08731 41.67718,13.28886 86.44529,14.10426 127.64305,29.01597 18.40137,7.96237 36.20823,17.47145 53.2179,28.0444 -9.4361,0.43366 -19.96832,3.62648 -28.57118,-1.76625 -34.85257,-15.78666 -72.4004,-26.90392 -109.40458,-34.56743 -11.1519,-2.23126 -23.45431,-4.28069 -35.69665,-5.71982 -15.70462,-1.48514 -31.13462,-4.20405 -45.14023,-12.11338 -11.49699,-1.96608 -20.60403,-16.86927 -3.94813,-19.44997 16.77711,-8.0879 35.30051,-10.48031 52.8411,-16.04535 18.67113,-5.81772 25.74569,-25.24848 38.72668,-37.66589 15.42792,-6.80665 32.22905,-10.62575 47.39486,-18.68287 25.85158,-9.03471 53.88143,5.53204 79.6584,-5.06397 20.63391,-6.63946 34.2496,-25.8351 50.7521,-37.7151 -13.1347,6.7142 -23.16308,18.89248 -36.82544,25.16987 -19.02671,12.79044 -42.75359,11.23395 -64.09557,6.70779 -27.74368,-0.0943 -54.37707,9.5574 -80.46863,17.95996 -9.64849,3.51067 -26.86782,15.02947 -31.52356,15.20511 6.42111,-3.68863 27.85134,-16.45577 9.64396,-9.29046 -15.0205,8.49208 -31.21477,14.65716 -48.81889,13.83947 -17.81252,1.54626 -37.00614,2.93453 -52.50508,12.51047 0.40859,9.70376 15.39404,20.25353 0.41851,28.11961 -17.14858,8.22464 -12.21078,32.07549 3.54908,38.56775 14.65676,5.30359 22.78683,17.98098 38.03748,22.23574 19.52,6.11915 42.3877,9.22438 56.56925,25.36729 2.46081,6.01463 9.04272,10.20382 6.14443,10.92299 6.49614,9.22364 11.29086,14.38915 1.33725,24.51013 -2.18824,1.50725 -4.91064,-0.0164 -6.92021,-0.9268 z m 226.36929,-235.855 c -9.11803,0.1567 -11.3227,4.16947 0,0 z m -217.5,216.56045 c -2.45201,-7.09778 4.75454,7.17619 0,0 z M 187.18722,289.94446 c 0.42722,-9.29274 10.06453,-12.5209 1.66994,-1.56455 0.84236,0.99091 -2.83484,4.70148 -1.66994,1.56455 z m 22.9261,0.45378 c -17.97713,-10.68688 9.68908,-16.84282 19.69434,-13.9752 13.23066,-4.74964 16.7248,8.42648 3.20887,11.72192 -7.34607,2.08111 -15.28785,3.43737 -22.90321,2.25328 z"
         id="path3427"
         inkscape:connector-curvature="0" />
      <path
         style="fill:#d4a569"
         d="m 264.98787,426.65675 c -18.31939,-9.92022 -23.18375,-34.56325 -44.1134,-41.03009 -29.07491,-11.02985 -61.50921,-20.84129 -80.7153,-47.07073 -6.17665,-14.05435 -4.85209,-32.57034 11.74596,-38.42668 15.40535,-10.99117 -19.89808,-25.19859 3.19657,-31.82437 19.4739,-7.12726 39.21452,-14.17432 60.1994,-14.77066 29.60301,-2.66776 56.50175,-16.49526 85.21231,-23.16694 20.6027,-6.61946 41.7546,-13.32423 63.71308,-10.94197 17.49874,-0.61584 35.86584,2.94528 52.75922,-2.5985 19.11761,-11.66228 36.54088,-28.11063 59.82627,-30.8761 22.98417,-3.0899 46.42954,-0.57544 69.24584,2.62519 -12.97709,5.22458 -30.02087,5.73498 -44.67297,8.1375 -17.33062,-0.39218 -30.15795,10.71357 -40.34935,23.29041 -18.77391,17.56293 -44.23717,27.30783 -70.00813,25.29317 -20.58941,-0.2291 -41.93439,-1.46194 -61.03389,7.79803 -16.68398,4.73794 -33.49276,12.11317 -36.91882,31.07856 -10.73524,13.5695 -30.10515,14.63051 -44.81988,22.22661 -13.037,1.57582 -23.97257,17.77604 -5.28281,21.08731 41.67718,13.28886 86.44529,14.10426 127.64305,29.01597 18.40137,7.96237 36.20823,17.47145 53.2179,28.0444 -9.4361,0.43366 -19.96832,3.62648 -28.57118,-1.76625 -45.05858,-19.91377 -93.08294,-33.47531 -141.90458,-39.94489 -21.59343,-2.74585 -44.6368,-7.77453 -61.45053,-22.36445 5.17072,-13.46549 29.6852,-12.98091 43.44368,-17.89065 18.25492,-3.80336 37.06164,-12.17248 46.10041,-29.49782 6.60489,-17.91628 25.86772,-19.5424 41.20125,-25.48672 15.54686,-8.62041 33.1777,-13.67271 50.96671,-9.91209 23.6096,2.3943 50.22581,1.84489 68.43136,-15.63521 14.43255,-12.34702 27.76063,-27.79209 47.74187,-30.70044 18.61139,-5.00336 -19.16086,-0.81716 -24.60334,3.96545 -21.4965,10.61753 -37.85908,34.31858 -64.05192,33.57902 -19.60101,-0.5746 -39.27703,-5.41144 -58.74258,-0.43278 -24.00965,4.68565 -46.95232,13.75035 -70.79518,19.20152 -15.55888,6.53648 -30.1644,16.65272 -47.84492,15.91103 -19.93979,2.2841 -41.65086,2.25546 -59.33065,12.80884 -2.94973,9.81676 12.83008,21.51229 -3.44733,28.10701 -19.00903,9.4616 -8.52775,31.60664 6.49941,38.70715 17.6488,9.05987 32.23604,24.4839 52.80859,27.05068 15.61782,4.62013 33.25748,8.96393 44.14241,21.90316 2.46081,6.01463 9.04272,10.20382 6.14443,10.92299 6.49614,9.22364 11.29086,14.38915 1.33725,24.51013 -2.18824,1.50725 -4.91063,-0.0164 -6.92021,-0.92679 z m 8.86929,-19.29455 c -2.45201,-7.09778 4.75454,7.17619 0,0 z M 210.11332,290.4089 c -17.69103,-12.93839 16.03628,-16.62474 26.08884,-12.77314 15.17382,5.11881 -11.65117,15.41879 -19.345,13.19659 l -3.42475,0.0275 -3.31909,-0.45091 z"
         id="path3425"
         inkscape:connector-curvature="0" />
      <path
         style="fill:#9ea69b"
         d="m 273.85716,407.3622 c -2.45201,-7.09778 4.75454,7.17619 0,0 z m -4.51254,-7.19831 c -13.99073,-22.48005 -41.97074,-25.59562 -64.9686,-32.93931 -16.07078,-8.35515 -31.29432,-18.72189 -46.03064,-29.20359 -15.23005,-10.33543 -10.77808,-29.45543 3.68609,-37.6585 12.95433,-8.83932 -17.91068,-27.56782 7.00412,-30.62809 22.2568,-8.20848 46.49933,-5.85181 69.17486,-11.53061 14.62986,-6.19528 28.14661,-15.31888 44.23796,-17.54705 28.4394,-6.30129 56.41023,-19.34665 86.06914,-16.71554 21.42382,3.6121 46.34797,6.51395 64.06892,-8.98012 13.68394,-9.1526 24.26994,-24.58012 42.12855,-25.5189 11.54989,-0.87379 34.73683,-6.54163 40.30536,-0.4651 -17.48558,3.03832 -37.00375,3.47824 -50.28531,17.05983 -16.11675,12.79825 -29.52014,31.69489 -51.70071,33.78954 -27.52395,5.54298 -57.87004,-8.19288 -83.34256,7.60684 -15.17455,8.97038 -38.22481,6.22675 -45.05792,26.05333 -11.94881,22.60088 -38.19406,29.95455 -61.5858,33.94725 -8.96579,3.21241 -43.24297,6.91283 -21.78962,18.26331 31.12963,18.23215 68.60412,14.04503 102.0987,24.80867 34.44141,8.43844 68.83582,18.95246 100.30388,35.3858 -28.37699,-11.55904 -56.86798,-23.29358 -86.82245,-30.34739 -25.59813,-7.36479 -51.91931,-11.41396 -78.25498,-14.90323 -16.46619,-3.80524 -34.00805,-8.40177 -46.67698,-20.16876 5.17072,-13.46549 29.6852,-12.98091 43.44368,-17.89065 18.25492,-3.80336 37.06164,-12.17248 46.10041,-29.49782 6.60489,-17.91628 25.86772,-19.5424 41.20125,-25.48672 15.54686,-8.62041 33.1777,-13.67271 50.96671,-9.91209 23.6096,2.3943 50.22581,1.84489 68.43136,-15.63521 14.43255,-12.34702 27.76063,-27.79209 47.74187,-30.70044 18.61139,-5.00336 -19.16086,-0.81716 -24.60334,3.96545 -21.4965,10.61753 -37.85908,34.31858 -64.05192,33.57902 -19.60101,-0.5746 -39.27703,-5.41144 -58.74258,-0.43278 -24.00965,4.68565 -46.95232,13.75035 -70.79518,19.20152 -15.55888,6.53648 -30.1644,16.65272 -47.84492,15.91103 -19.93979,2.2841 -41.65086,2.25546 -59.33065,12.80884 -2.94973,9.81676 12.83008,21.51229 -3.44733,28.10701 -19.00903,9.4616 -8.52775,31.60664 6.49941,38.70715 17.27278,8.66012 31.29863,23.95546 51.27109,26.65875 18.99921,5.464 41.13221,10.86788 51.29789,29.78221 3.25578,3.97801 2.53552,6.53141 -0.69976,0.52635 z M 210.11332,290.4089 c -17.69103,-12.93839 16.03628,-16.62474 26.08884,-12.77314 15.17382,5.11881 -11.65117,15.41879 -19.345,13.19659 l -3.42475,0.0275 -3.31909,-0.45091 z m 16.90761,-2.49379 c 8.48937,0.56787 18.46633,-9.5174 4.2844,-8.86789 -7.93101,-3.60384 -35.37423,1.34286 -19.87973,10.01249 5.21324,0.49119 10.48314,-0.10944 15.59533,-1.1446 z"
         id="path3423"
         inkscape:connector-curvature="0" />
      <path
         style="fill:#6292a5"
         d="m 160.14557,304.16191 c 21.39505,-8.69577 -16.03121,-29.51774 9.1818,-33.5433 23.80469,-8.84617 50.21325,-4.87021 73.96662,-13.31097 13.43715,-7.84616 27.49579,-14.35637 43.0093,-16.78301 27.37409,-6.04231 54.43373,-19.49715 83.05387,-15.07813 -9.34188,0.62323 -35.56718,2.94477 -50.58554,8.92072 -22.37936,8.13369 -47.02374,10.12366 -67.47604,23.0773 -21.14641,9.32699 -45.30851,5.12615 -67.34168,11.37603 -15.08172,0.93259 -28.15255,11.63328 -14.27759,25.35568 -0.47793,6.21868 -23.74008,22.24745 -9.53074,9.98568 z m 60.52409,1.51718 c 5.77036,-0.63061 -1.89684,1.76168 0,0 z m 7.1875,-1.38516 c 19.73584,-4.15005 41.87503,-10.21534 52.33552,-29.26201 6.42758,-17.23894 23.62054,-21.87093 39.48111,-26.19967 15.96333,-7.94274 33.24385,-15.25863 51.49376,-11.54811 6.4073,-0.15275 24.98236,4.1114 7.74534,1.94246 -16.74961,-1.37804 -34.32063,-1.92788 -49.22109,7.18843 -14.19402,9.32276 -36.67463,5.31044 -44.18158,23.5118 -11.18952,23.37034 -37.97527,33.01997 -62.15306,35.37101 1.5,-0.33464 3,-0.66927 4.5,-1.00391 z m -22.43571,-23.22486 c 3.77849,-4.98049 -1.26661,4.5744 0,0 z m 30.93571,-2.70687 c -11.39026,-1.67279 9.84416,-0.28344 3.42476,0.5948 l -3.42476,-0.5948 z m 162,-39 c 17.08226,-1.38384 33.70396,-7.58673 46.45896,-19.42512 7.88712,-7.17705 25.47694,-24.71252 30.2606,-22.75042 -17.4899,11.05468 -29.46124,29.37955 -48.44768,38.07916 -8.42274,2.97753 -20.28216,6.45851 -28.27188,4.09638 z m -1.73209,-10.72473 c 10.4038,-0.82338 4.27188,1.42752 0,-1e-5 l 0,1e-5 z m 14.23209,-1.62899 c 20.197,-4.77919 33.04909,-22.53787 49.80241,-33.17061 7.84302,-3.98785 32.80467,-5.80444 11.53705,-1.31234 -23.69526,7.32634 -38.29166,32.27063 -63.62697,35.75286 l -1.3984,-0.31332 3.68591,-0.95659 z m 87.5,-38.64628 c 6.22307,-2.95128 21.57322,0.70893 6.38197,1 -1.71528,-0.52745 -5.11609,0.66851 -6.38197,-1 z"
         id="path3421"
         inkscape:connector-curvature="0" />
    </g>
  </g>
</svg>
